<?xml version="1.0" encoding="iso-8859-1"?>
<!-- Generator: Adobe Illustrator 16.0.0, SVG Export Plug-In . SVG Version: 6.00 Build 0)  -->
<!DOCTYPE svg PUBLIC "-//W3C//DTD SVG 1.1//EN" "http://www.w3.org/Graphics/SVG/1.1/DTD/svg11.dtd">
<svg version="1.1" id="Layer_1" xmlns="http://www.w3.org/2000/svg" xmlns:xlink="http://www.w3.org/1999/xlink" x="0px" y="0px"
	 width="32px" height="32px" viewBox="0 0 32 32" style="enable-background:new 0 0 32 32;" xml:space="preserve">
<g id="Elipse_12_">
	<g>
		<path style="fill-rule:evenodd;clip-rule:evenodd;fill:#CCCCCC;" d="M16,0C7.163,0,0,7.164,0,16c0,8.837,7.163,16,16,16
			s16-7.163,16-16C32,7.164,24.837,0,16,0z M16,30C8.268,30,2,23.732,2,16C2,8.269,8.268,2.001,16,2.001c7.731,0,14,6.268,14,13.999
			C30,23.732,23.731,30,16,30z"/>
	</g>
</g>
<g id="_x40_">
	<g>
		<path style="fill-rule:evenodd;clip-rule:evenodd;fill:#88C057;" d="M23,16.992c0-0.001,0-0.002,0-0.003
			c0-0.004-0.001-0.008-0.001-0.012C22.989,12.063,19.86,8.989,16,8.989c-3.866,0-7,3.134-7,7c0,3.865,3.134,7,7,7
			c0.552,0,1-0.448,1-1c0-0.553-0.448-1-1-1c-2.762,0-5-2.239-5-5c0-2.762,2.238-5,5-5s5,2.238,5,5v1c0,0.552-0.448,1-1,1
			c-0.553,0-1-0.448-1-1v-2.816v-0.184c0-0.553-0.448-1-1-1c-0.28,0-0.531,0.116-0.713,0.301c-0.392-0.188-0.824-0.301-1.287-0.301
			c-1.657,0-3,1.343-3,3c0,1.656,1.343,3,3,3c0.537,0,1.034-0.152,1.471-0.4c0.531,0.839,1.462,1.4,2.529,1.4
			c1.545,0,2.804-1.174,2.967-2.676C22.987,17.236,23,17.139,23,17.001C23,16.998,23,16.995,23,16.992z M16,16.989
			c-0.553,0-1-0.448-1-1c0-0.553,0.447-1,1-1c0.552,0,1,0.447,1,1C17,16.541,16.552,16.989,16,16.989z"/>
	</g>
</g>
<g>
</g>
<g>
</g>
<g>
</g>
<g>
</g>
<g>
</g>
<g>
</g>
<g>
</g>
<g>
</g>
<g>
</g>
<g>
</g>
<g>
</g>
<g>
</g>
<g>
</g>
<g>
</g>
<g>
</g>
</svg>
