<?xml version="1.0" encoding="iso-8859-1"?>
<!-- Generator: Adobe Illustrator 16.0.0, SVG Export Plug-In . SVG Version: 6.00 Build 0)  -->
<!DOCTYPE svg PUBLIC "-//W3C//DTD SVG 1.1//EN" "http://www.w3.org/Graphics/SVG/1.1/DTD/svg11.dtd">
<svg version="1.1" id="Layer_1" xmlns="http://www.w3.org/2000/svg" xmlns:xlink="http://www.w3.org/1999/xlink" x="0px" y="0px"
	 width="32px" height="32px" viewBox="0 0 32 32" style="enable-background:new 0 0 32 32;" xml:space="preserve">
<g id="Elipse_51_">
	<g>
		<path style="fill-rule:evenodd;clip-rule:evenodd;fill:#CCCCCC;" d="M16,0C7.163,0,0,7.163,0,15.999C0,24.836,7.163,32,16,32
			s16-7.164,16-16.001C32,7.163,24.837,0,16,0z M16,30C8.268,30,2,23.731,2,15.999C2,8.268,8.268,2,16,2s14,6.268,14,13.999
			C30,23.731,23.732,30,16,30z"/>
	</g>
</g>
<g id="Attachment">
	<g>
		<path style="fill:#ED7465;" d="M21.828,10.172C21.073,9.416,20.068,9,19,9c-1.069,0-2.073,0.416-2.828,1.172l-6,6
			C9.416,16.927,9,17.932,9,19s0.416,2.073,1.171,2.828C10.927,22.584,11.931,23,13,23c0.552,0,1-0.447,1-1s-0.448-1-1-1
			c-0.534,0-1.036-0.208-1.414-0.586S11,19.534,11,19s0.208-1.036,0.586-1.414l6-6C17.964,11.208,18.466,11,19,11
			s1.036,0.208,1.414,0.586C20.792,11.963,21,12.466,21,13s-0.208,1.036-0.586,1.414l-4.43,4.43
			c-0.096,0.095-0.291,0.152-0.43,0.151c-0.167,0-0.319-0.053-0.408-0.142c-0.195-0.195-0.195-0.512,0-0.707l3-3
			c0.391-0.391,0.391-1.023,0-1.414s-1.023-0.391-1.414,0l-3,3c-0.975,0.975-0.975,2.56-0.001,3.535
			c0.463,0.463,1.127,0.728,1.823,0.728c0.006,0,0.011,0,0.017,0c0.696-0.004,1.362-0.272,1.827-0.737l4.43-4.43
			C22.584,15.072,23,14.068,23,12.999C22.999,11.932,22.583,10.927,21.828,10.172z"/>
	</g>
</g>
<g>
</g>
<g>
</g>
<g>
</g>
<g>
</g>
<g>
</g>
<g>
</g>
<g>
</g>
<g>
</g>
<g>
</g>
<g>
</g>
<g>
</g>
<g>
</g>
<g>
</g>
<g>
</g>
<g>
</g>
</svg>
