<?xml version="1.0" encoding="iso-8859-1"?>
<!-- Generator: Adobe Illustrator 16.0.0, SVG Export Plug-In . SVG Version: 6.00 Build 0)  -->
<!DOCTYPE svg PUBLIC "-//W3C//DTD SVG 1.1//EN" "http://www.w3.org/Graphics/SVG/1.1/DTD/svg11.dtd">
<svg version="1.1" id="Layer_1" xmlns="http://www.w3.org/2000/svg" xmlns:xlink="http://www.w3.org/1999/xlink" x="0px" y="0px"
	 width="32px" height="32px" viewBox="0 0 32 32" style="enable-background:new 0 0 32 32;" xml:space="preserve">
<g id="Elipse_90_">
	<g>
		<path style="fill-rule:evenodd;clip-rule:evenodd;fill:#CCCCCC;" d="M16,0C7.163,0,0,7.164,0,16c0,8.837,7.163,16,16,16
			s16-7.163,16-16C32,7.164,24.837,0,16,0z M16,30C8.268,30,2,23.731,2,16C2,8.268,8.268,2,16,2s14,6.268,14,14
			C30,23.731,23.732,30,16,30z"/>
	</g>
</g>
<g id="Back">
	<g>
		<path style="fill-rule:evenodd;clip-rule:evenodd;fill:#88C057;" d="M15.504,18.964L10.834,16l4.67-2.965
			c0.475-0.301,0.637-0.968,0.363-1.489c-0.274-0.521-0.882-0.701-1.355-0.399l-6.016,3.818c-0.324,0.206-0.489,0.583-0.482,0.968
			C8.011,15.956,8.012,15.977,8.01,16c0.002,0.023,0.001,0.045,0.004,0.068c-0.007,0.384,0.158,0.762,0.482,0.967l6.016,3.818
			c0.474,0.301,1.081,0.123,1.355-0.398C16.141,19.933,15.979,19.266,15.504,18.964z M21,10.999c-0.193,0-0.362,0.069-0.516,0.164
			l-5.988,3.802c-0.324,0.205-0.488,0.583-0.482,0.968c-0.003,0.022-0.002,0.044-0.004,0.067c0.002,0.022,0.001,0.045,0.004,0.067
			c-0.006,0.385,0.158,0.762,0.482,0.968l6.005,3.812C20.65,20.936,20.814,21,21,21c0.553,0,1-0.448,1-1v-8
			C22,11.447,21.553,10.999,21,10.999z"/>
	</g>
</g>
<g>
</g>
<g>
</g>
<g>
</g>
<g>
</g>
<g>
</g>
<g>
</g>
<g>
</g>
<g>
</g>
<g>
</g>
<g>
</g>
<g>
</g>
<g>
</g>
<g>
</g>
<g>
</g>
<g>
</g>
</svg>
