<?xml version="1.0" encoding="iso-8859-1"?>
<!-- Generator: Adobe Illustrator 16.0.0, SVG Export Plug-In . SVG Version: 6.00 Build 0)  -->
<!DOCTYPE svg PUBLIC "-//W3C//DTD SVG 1.1//EN" "http://www.w3.org/Graphics/SVG/1.1/DTD/svg11.dtd">
<svg version="1.1" id="Layer_1" xmlns="http://www.w3.org/2000/svg" xmlns:xlink="http://www.w3.org/1999/xlink" x="0px" y="0px"
	 width="32px" height="32px" viewBox="0 0 32 32" style="enable-background:new 0 0 32 32;" xml:space="preserve">
<g id="Elipse_65_">
	<g>
		<path style="fill-rule:evenodd;clip-rule:evenodd;fill:#CCCCCC;" d="M16,0C7.163,0,0,7.163,0,16s7.163,16,16,16s16-7.163,16-16
			S24.837,0,16,0z M16,30C8.268,30,2,23.731,2,16C2,8.268,8.268,2,16,2s14,6.268,14,14C30,23.731,23.732,30,16,30z"/>
	</g>
</g>
<g id="Bell">
	<g>
		<path style="fill-rule:evenodd;clip-rule:evenodd;fill:#ED7161;" d="M16,22c0.552,0,1-0.448,1-1h-2C15,21.552,15.447,22,16,22z
			 M20,17.091v-2.092c0-1.872-1.291-3.43-3.027-3.867C16.979,11.087,17,11.046,17,10.999c0-0.552-0.448-1-1-1c-0.553,0-1,0.448-1,1
			c0,0.047,0.021,0.088,0.027,0.133C13.291,11.569,12,13.127,12,14.999v2.092c-0.581,0.207-1,0.756-1,1.408
			c0,0.828,0.672,1.5,1.5,1.5H15h1h1h2.5c0.828,0,1.5-0.672,1.5-1.5C21,17.847,20.581,17.298,20,17.091z M18,18h-4v-3.001
			C14,13.896,14.896,13,16,13s2,0.896,2,1.999V18z"/>
	</g>
</g>
<g>
</g>
<g>
</g>
<g>
</g>
<g>
</g>
<g>
</g>
<g>
</g>
<g>
</g>
<g>
</g>
<g>
</g>
<g>
</g>
<g>
</g>
<g>
</g>
<g>
</g>
<g>
</g>
<g>
</g>
</svg>
