<?xml version="1.0" encoding="iso-8859-1"?>
<!-- Generator: Adobe Illustrator 16.0.0, SVG Export Plug-In . SVG Version: 6.00 Build 0)  -->
<!DOCTYPE svg PUBLIC "-//W3C//DTD SVG 1.1//EN" "http://www.w3.org/Graphics/SVG/1.1/DTD/svg11.dtd">
<svg version="1.1" id="Layer_1" xmlns="http://www.w3.org/2000/svg" xmlns:xlink="http://www.w3.org/1999/xlink" x="0px" y="0px"
	 width="32px" height="31.999px" viewBox="0 0 32 31.999" style="enable-background:new 0 0 32 31.999;" xml:space="preserve">
<g id="Elipse_11_">
	<g>
		<path style="fill-rule:evenodd;clip-rule:evenodd;fill:#CCCCCC;" d="M16,0C7.163,0,0,7.163,0,15.999c0,8.837,7.163,16,16,16
			s16-7.163,16-16C32,7.163,24.837,0,16,0z M16,30C8.268,30,2,23.731,2,15.999C2,8.268,8.268,2,16,2s14,6.268,14,13.999
			C30,23.731,23.732,30,16,30z"/>
	</g>
</g>
<g id="Blocked">
	<g>
		<path style="fill-rule:evenodd;clip-rule:evenodd;fill:#ED7161;" d="M16,10c-3.313,0-6,2.686-6,5.999C10,19.313,12.687,22,16,22
			s6-2.687,6-6.001C22,12.686,19.313,10,16,10z M16,11.999c0.693,0,1.336,0.192,1.904,0.503l-5.401,5.401
			C12.192,17.335,12,16.692,12,15.999C12,13.79,13.791,11.999,16,11.999z M16,19.999c-0.693,0-1.335-0.192-1.903-0.502l5.401-5.401
			c0.31,0.568,0.502,1.21,0.502,1.903C20,18.209,18.209,19.999,16,19.999z"/>
	</g>
</g>
<g>
</g>
<g>
</g>
<g>
</g>
<g>
</g>
<g>
</g>
<g>
</g>
<g>
</g>
<g>
</g>
<g>
</g>
<g>
</g>
<g>
</g>
<g>
</g>
<g>
</g>
<g>
</g>
<g>
</g>
</svg>
