<?xml version="1.0" encoding="iso-8859-1"?>
<!-- Generator: Adobe Illustrator 16.0.0, SVG Export Plug-In . SVG Version: 6.00 Build 0)  -->
<!DOCTYPE svg PUBLIC "-//W3C//DTD SVG 1.1//EN" "http://www.w3.org/Graphics/SVG/1.1/DTD/svg11.dtd">
<svg version="1.1" id="Layer_1" xmlns="http://www.w3.org/2000/svg" xmlns:xlink="http://www.w3.org/1999/xlink" x="0px" y="0px"
	 width="32px" height="32px" viewBox="0 0 32 32" style="enable-background:new 0 0 32 32;" xml:space="preserve">
<g id="Elipse_30_">
	<g>
		<path style="fill-rule:evenodd;clip-rule:evenodd;fill:#CCCCCC;" d="M16,0C7.163,0,0,7.163,0,16s7.163,16,16,16
			c8.836,0,16-7.163,16-16S24.836,0,16,0z M16,30C8.268,30,2,23.732,2,16C2,8.269,8.268,2,16,2c7.731,0,14,6.269,14,14
			C30,23.732,23.731,30,16,30z"/>
	</g>
</g>
<g id="Brightness">
	<g>
		<path style="fill-rule:evenodd;clip-rule:evenodd;fill:#FFCC66;" d="M16,14.001c-1.104,0-2,0.895-2,1.999s0.896,2.001,2,2.001
			s2-0.896,2-2.001S17.104,14.001,16,14.001z M16,13.001c0.552,0,1-0.448,1-1v-2c0-0.553-0.448-1-1-1c-0.553,0-1,0.447-1,1v2
			C15,12.553,15.447,13.001,16,13.001z M16,19c-0.553,0-1,0.448-1,1v2.001c0,0.552,0.447,1,1,1c0.552,0,1-0.448,1-1V20
			C17,19.448,16.552,19,16,19z M22,15.001h-2c-0.553,0-1,0.447-1,0.999c0,0.553,0.447,1.001,1,1.001h2c0.552,0,1-0.448,1-1.001
			C23,15.448,22.552,15.001,22,15.001z M13,16c0-0.552-0.448-0.999-1-0.999h-2c-0.553,0-1,0.447-1,0.999
			c0,0.553,0.447,1.001,1,1.001h2C12.552,17.001,13,16.553,13,16z M19.535,13.879l1.414-1.414c0.391-0.391,0.391-1.023,0-1.414
			s-1.023-0.391-1.414,0l-1.414,1.414c-0.391,0.391-0.391,1.023,0,1.414S19.145,14.27,19.535,13.879z M12.464,18.122l-1.414,1.414
			c-0.391,0.391-0.391,1.023,0,1.414s1.024,0.391,1.414,0l1.415-1.414c0.391-0.391,0.391-1.023,0-1.414S12.854,17.731,12.464,18.122
			z M19.535,18.122c-0.391-0.391-1.023-0.391-1.414,0s-0.391,1.023,0,1.414l1.414,1.414c0.391,0.391,1.023,0.391,1.414,0
			s0.391-1.023,0-1.414L19.535,18.122z M12.464,13.879c0.391,0.391,1.024,0.391,1.415,0s0.391-1.023,0-1.414l-1.415-1.414
			c-0.39-0.391-1.023-0.391-1.414,0s-0.391,1.023,0,1.414L12.464,13.879z"/>
	</g>
</g>
<g>
</g>
<g>
</g>
<g>
</g>
<g>
</g>
<g>
</g>
<g>
</g>
<g>
</g>
<g>
</g>
<g>
</g>
<g>
</g>
<g>
</g>
<g>
</g>
<g>
</g>
<g>
</g>
<g>
</g>
</svg>
