<?xml version="1.0" encoding="iso-8859-1"?>
<!-- Generator: Adobe Illustrator 16.0.0, SVG Export Plug-In . SVG Version: 6.00 Build 0)  -->
<!DOCTYPE svg PUBLIC "-//W3C//DTD SVG 1.1//EN" "http://www.w3.org/Graphics/SVG/1.1/DTD/svg11.dtd">
<svg version="1.1" id="Layer_1" xmlns="http://www.w3.org/2000/svg" xmlns:xlink="http://www.w3.org/1999/xlink" x="0px" y="0px"
	 width="32px" height="32px" viewBox="0 0 32 32" style="enable-background:new 0 0 32 32;" xml:space="preserve">
<g id="Elipse_56_">
	<g>
		<path style="fill-rule:evenodd;clip-rule:evenodd;fill:#CCCCCC;" d="M16,0C7.163,0,0,7.163,0,15.999C0,24.836,7.163,32,16,32
			s16-7.164,16-16.001C32,7.163,24.837,0,16,0z M16,30C8.268,30,2,23.731,2,15.999C2,8.268,8.268,2,16,2s14,6.268,14,13.999
			C30,23.731,23.732,30,16,30z"/>
	</g>
</g>
<g id="Cart_2_">
	<g>
		<path style="fill:#48A0DC;" d="M19.5,19.999c-0.828,0-1.5,0.672-1.5,1.501c0,0.828,0.672,1.5,1.5,1.5s1.5-0.672,1.5-1.5
			C21,20.671,20.328,19.999,19.5,19.999z M13.5,19.999c-0.828,0-1.5,0.672-1.5,1.501c0,0.828,0.672,1.5,1.5,1.5s1.5-0.672,1.5-1.5
			C15,20.671,14.328,19.999,13.5,19.999z M22.982,11.914c-0.002-0.021-0.008-0.038-0.012-0.058
			c-0.071-0.481-0.469-0.857-0.971-0.857H12V10c0-0.553-0.448-1-1-1h-1c-0.553,0-1,0.447-1,1c0,0.552,0.447,0.999,1,0.999v1
			c0,0.151,0.039,0.292,0.1,0.42c0.002,0.006,0.008,0.011,0.011,0.017c0.062,0.125,0.147,0.229,0.253,0.318l1.172,4.375
			C11.221,17.297,11,17.618,11,18c0,0.552,0.447,0.999,1,0.999h9c0.552,0,1-0.447,1-0.999c0-0.355-0.196-0.653-0.476-0.83
			l1.432-4.872c0.013-0.042,0.002-0.083,0.009-0.124C22.976,12.115,23,12.062,23,11.999C23,11.969,22.985,11.943,22.982,11.914z
			 M19.25,16.999h-5.679L12.499,13h7.926L19.25,16.999z"/>
	</g>
</g>
<g>
</g>
<g>
</g>
<g>
</g>
<g>
</g>
<g>
</g>
<g>
</g>
<g>
</g>
<g>
</g>
<g>
</g>
<g>
</g>
<g>
</g>
<g>
</g>
<g>
</g>
<g>
</g>
<g>
</g>
</svg>
