<?xml version="1.0" encoding="iso-8859-1"?>
<!-- Generator: Adobe Illustrator 16.0.0, SVG Export Plug-In . SVG Version: 6.00 Build 0)  -->
<!DOCTYPE svg PUBLIC "-//W3C//DTD SVG 1.1//EN" "http://www.w3.org/Graphics/SVG/1.1/DTD/svg11.dtd">
<svg version="1.1" id="Layer_1" xmlns="http://www.w3.org/2000/svg" xmlns:xlink="http://www.w3.org/1999/xlink" x="0px" y="0px"
	 width="34px" height="34px" viewBox="0 0 34 34" style="enable-background:new 0 0 34 34;" xml:space="preserve">
<g id="Elipse_52_">
	<g>
		<path style="fill-rule:evenodd;clip-rule:evenodd;fill:#CCCCCC;" d="M18.908,29.693C17.97,29.892,16.998,30,16,30
			C8.268,30,2,23.731,2,15.999C2,8.268,8.268,2,16,2s14,6.268,14,13.999c0,0.998-0.108,1.97-0.307,2.91
			c0.638,0.333,1.222,0.751,1.745,1.236C31.793,18.82,32,17.436,32,15.999C32,7.163,24.837,0,16,0S0,7.163,0,15.999
			C0,24.836,7.163,32,16,32c1.436,0,2.82-0.207,4.145-0.562C19.659,30.916,19.241,30.332,18.908,29.693z"/>
	</g>
</g>
<g id="Cart">
	<g>
		<path style="fill-rule:evenodd;clip-rule:evenodd;fill:#48A0DC;" d="M18,21.5c0,0.529,0.275,0.992,0.69,1.259
			c0.411-0.926,0.989-1.759,1.701-2.46c-0.249-0.186-0.556-0.3-0.892-0.3C18.672,19.999,18,20.671,18,21.5z M13.5,19.999
			c-0.828,0-1.5,0.672-1.5,1.501c0,0.828,0.672,1.5,1.5,1.5s1.5-0.672,1.5-1.5C15,20.671,14.328,19.999,13.5,19.999z M22.982,11.914
			c-0.002-0.021-0.008-0.038-0.012-0.058c-0.071-0.481-0.469-0.857-0.971-0.857H12V10c0-0.553-0.448-1-1-1h-1c-0.553,0-1,0.447-1,1
			c0,0.552,0.447,0.999,1,0.999v1c0,0.151,0.039,0.292,0.1,0.42c0.002,0.006,0.008,0.011,0.011,0.017
			c0.062,0.125,0.147,0.229,0.253,0.318l1.172,4.375C11.221,17.297,11,17.618,11,18c0,0.552,0.447,0.999,1,0.999h9
			c0.552,0,1-0.447,1-0.999c0-0.355-0.196-0.653-0.476-0.83l1.432-4.872c0.013-0.042,0.002-0.083,0.009-0.124
			C22.976,12.115,23,12.062,23,11.999C23,11.969,22.985,11.943,22.982,11.914z M19.25,16.999h-5.679L12.499,13h7.926L19.25,16.999z"
			/>
	</g>
</g>
<g id="Elipse_53_">
	<g>
		<circle style="fill:#ED7161;" cx="26" cy="26" r="6"/>
	</g>
</g>
<g id="Minus_3_">
	<g>
		<path style="fill:#FFFFFF;" d="M28,25h-4c-0.553,0-1,0.447-1,1c0,0.552,0.447,1,1,1h4c0.552,0,1-0.448,1-1
			C29,25.447,28.552,25,28,25z"/>
	</g>
</g>
<g>
</g>
<g>
</g>
<g>
</g>
<g>
</g>
<g>
</g>
<g>
</g>
<g>
</g>
<g>
</g>
<g>
</g>
<g>
</g>
<g>
</g>
<g>
</g>
<g>
</g>
<g>
</g>
<g>
</g>
</svg>
