<?xml version="1.0" encoding="iso-8859-1"?>
<!-- Generator: Adobe Illustrator 16.0.0, SVG Export Plug-In . SVG Version: 6.00 Build 0)  -->
<!DOCTYPE svg PUBLIC "-//W3C//DTD SVG 1.1//EN" "http://www.w3.org/Graphics/SVG/1.1/DTD/svg11.dtd">
<svg version="1.1" id="Layer_1" xmlns="http://www.w3.org/2000/svg" xmlns:xlink="http://www.w3.org/1999/xlink" x="0px" y="0px"
	 width="32px" height="31.999px" viewBox="0 0 32 31.999" style="enable-background:new 0 0 32 31.999;" xml:space="preserve">
<g id="Elipse_10_">
	<g>
		<path style="fill-rule:evenodd;clip-rule:evenodd;fill:#CCCCCC;" d="M16,0C7.163,0,0,7.163,0,15.999c0,8.837,7.163,16,16,16
			s16-7.163,16-16C32,7.163,24.837,0,16,0z M16,30C8.268,30,2,23.731,2,15.999C2,8.268,8.268,2,16,2s14,6.268,14,13.999
			C30,23.731,23.732,30,16,30z"/>
	</g>
</g>
<g id="Pin">
	<g>
		<path style="fill-rule:evenodd;clip-rule:evenodd;fill:#48A0DC;" d="M15.999,8.998c-3.312,0-5.997,2.37-5.997,5.294
			c0,0.057,0.029,1.418,0.545,2.388c1.478,3.009,5.447,6.34,5.452,6.322c0.007,0.012,3.959-3.301,5.443-6.304
			c0.44-0.712,0.554-2.29,0.554-2.406C21.996,11.368,19.312,8.998,15.999,8.998z M16,16.999c-1.1,0-1.991-0.896-1.991-2
			S14.9,13,16,13s1.991,0.895,1.991,1.999S17.1,16.999,16,16.999z"/>
	</g>
</g>
<g>
</g>
<g>
</g>
<g>
</g>
<g>
</g>
<g>
</g>
<g>
</g>
<g>
</g>
<g>
</g>
<g>
</g>
<g>
</g>
<g>
</g>
<g>
</g>
<g>
</g>
<g>
</g>
<g>
</g>
</svg>
