<?xml version="1.0" encoding="iso-8859-1"?>
<!-- Generator: Adobe Illustrator 16.0.0, SVG Export Plug-In . SVG Version: 6.00 Build 0)  -->
<!DOCTYPE svg PUBLIC "-//W3C//DTD SVG 1.1//EN" "http://www.w3.org/Graphics/SVG/1.1/DTD/svg11.dtd">
<svg version="1.1" id="Layer_1" xmlns="http://www.w3.org/2000/svg" xmlns:xlink="http://www.w3.org/1999/xlink" x="0px" y="0px"
	 width="32px" height="32px" viewBox="0 0 32 32" style="enable-background:new 0 0 32 32;" xml:space="preserve">
<g id="Elipse_61_">
	<g>
		<path style="fill-rule:evenodd;clip-rule:evenodd;fill:#CCCCCC;" d="M16,0C7.164,0,0,7.163,0,15.999C0,24.836,7.164,32,16,32
			s16-7.164,16-16.001C32,7.163,24.836,0,16,0z M16,30C8.268,30,2,23.731,2,15.999C2,8.268,8.268,2,16,2s14,6.268,14,13.999
			C30,23.731,23.732,30,16,30z"/>
	</g>
</g>
<g id="Cloud_2_">
	<g>
		<path style="fill-rule:evenodd;clip-rule:evenodd;fill:#48A0DC;" d="M20.982,15.178C20.985,15.118,21,15.061,21,15
			c0-2.209-1.791-4.001-4-4.001c-1.554,0-2.886,0.896-3.548,2.191C13.158,13.069,12.837,13,12.5,13c-1.381,0-2.5,1.119-2.5,2.5
			c0,0.088,0.017,0.171,0.026,0.257C9.402,16.307,9,17.103,9,18c0,1.656,1.343,3,3,3h8c1.657,0,3-1.344,3-3
			C23,16.689,22.154,15.586,20.982,15.178z"/>
	</g>
</g>
<g>
</g>
<g>
</g>
<g>
</g>
<g>
</g>
<g>
</g>
<g>
</g>
<g>
</g>
<g>
</g>
<g>
</g>
<g>
</g>
<g>
</g>
<g>
</g>
<g>
</g>
<g>
</g>
<g>
</g>
</svg>
