<?xml version="1.0" encoding="iso-8859-1"?>
<!-- Generator: Adobe Illustrator 16.0.0, SVG Export Plug-In . SVG Version: 6.00 Build 0)  -->
<!DOCTYPE svg PUBLIC "-//W3C//DTD SVG 1.1//EN" "http://www.w3.org/Graphics/SVG/1.1/DTD/svg11.dtd">
<svg version="1.1" id="Layer_1" xmlns="http://www.w3.org/2000/svg" xmlns:xlink="http://www.w3.org/1999/xlink" x="0px" y="0px"
	 width="34px" height="34px" viewBox="0 0 34 34" style="enable-background:new 0 0 34 34;" xml:space="preserve">
<g id="Elipse_59_">
	<g>
		<path style="fill-rule:evenodd;clip-rule:evenodd;fill:#CCCCCC;" d="M18.908,29.693C17.969,29.892,16.998,30,16,30
			C8.268,30,2,23.731,2,15.999C2,8.268,8.268,2,16,2s14,6.268,14,13.999c0,0.998-0.108,1.97-0.307,2.909
			c0.638,0.333,1.223,0.751,1.745,1.237C31.793,18.82,32,17.436,32,15.999C32,7.163,24.836,0,16,0S0,7.163,0,15.999
			C0,24.836,7.164,32,16,32c1.436,0,2.82-0.207,4.145-0.562C19.659,30.916,19.241,30.332,18.908,29.693z"/>
	</g>
</g>
<g id="Elipse_60_">
	<g>
		<circle style="fill:#88C057;" cx="26" cy="26" r="6"/>
	</g>
</g>
<g id="Plus_4_">
	<g>
		<path style="fill:#FFFFFF;" d="M28,25h-1v-1c0-0.553-0.447-1-1-1c-0.552,0-1,0.447-1,1v1h-1c-0.552,0-1,0.447-1,1
			c0,0.552,0.448,1,1,1h1v0.999C25,28.553,25.448,29,26,29c0.553,0,1-0.447,1-1.001V27h1c0.553,0,1-0.448,1-1
			C29,25.447,28.553,25,28,25z"/>
	</g>
</g>
<g id="Cloud_1_">
	<g>
		<path style="fill-rule:evenodd;clip-rule:evenodd;fill:#48A0DC;" d="M22.937,18.611C22.978,18.414,23,18.209,23,18
			c0-1.311-0.846-2.414-2.018-2.822C20.985,15.118,21,15.061,21,15c0-2.209-1.791-4.001-4-4.001c-1.554,0-2.886,0.896-3.548,2.191
			C13.158,13.069,12.837,13,12.5,13c-1.381,0-2.5,1.119-2.5,2.5c0,0.088,0.017,0.171,0.026,0.257C9.402,16.307,9,17.103,9,18
			c0,1.656,1.343,3,3,3h7.761C20.597,19.958,21.686,19.13,22.937,18.611z"/>
	</g>
</g>
<g>
</g>
<g>
</g>
<g>
</g>
<g>
</g>
<g>
</g>
<g>
</g>
<g>
</g>
<g>
</g>
<g>
</g>
<g>
</g>
<g>
</g>
<g>
</g>
<g>
</g>
<g>
</g>
<g>
</g>
</svg>
