<?xml version="1.0" encoding="iso-8859-1"?>
<!-- Generator: Adobe Illustrator 16.0.0, SVG Export Plug-In . SVG Version: 6.00 Build 0)  -->
<!DOCTYPE svg PUBLIC "-//W3C//DTD SVG 1.1//EN" "http://www.w3.org/Graphics/SVG/1.1/DTD/svg11.dtd">
<svg version="1.1" id="Layer_1" xmlns="http://www.w3.org/2000/svg" xmlns:xlink="http://www.w3.org/1999/xlink" x="0px" y="0px"
	 width="32px" height="32px" viewBox="0 0 32 32" style="enable-background:new 0 0 32 32;" xml:space="preserve">
<g id="Elipse_81_">
	<g>
		<path style="fill-rule:evenodd;clip-rule:evenodd;fill:#CCCCCC;" d="M16,0C7.163,0,0,7.163,0,15.999C0,24.836,7.163,32,16,32
			s16-7.164,16-16.001C32,7.163,24.837,0,16,0z M16,30C8.268,30,2,23.731,2,15.999C2,8.268,8.268,2,16,2s14,6.268,14,13.999
			C30,23.731,23.732,30,16,30z"/>
	</g>
</g>
<g id="Arrow_8_">
	<g>
		<path style="fill-rule:evenodd;clip-rule:evenodd;fill:#ED7161;" d="M18,15h3c0.552,0,1-0.448,1-1c0-0.553-0.448-1-1-1h-0.525
			l2.206-2.233c0.405-0.408,0.405-1.069,0-1.478c-0.404-0.408-1.061-0.408-1.466,0L19,11.531V11c0-0.553-0.448-1-1-1
			c-0.553,0-1,0.447-1,1v3C17,14.552,17.447,15,18,15z M14,16.999h-3c-0.553,0-1,0.448-1,1c0,0.553,0.447,1,1,1h0.525l-2.206,2.233
			c-0.405,0.408-0.405,1.07,0,1.478c0.404,0.408,1.061,0.408,1.466,0L13,20.468v0.531C13,21.552,13.447,22,14,22
			c0.552,0,1-0.448,1-1.001v-3C15,17.447,14.552,16.999,14,16.999z M22.711,21.215L20.475,19h0.527C21.553,19,22,18.552,22,18
			c0-0.553-0.447-1-0.998-1h-2.991c-0.551,0-0.998,0.447-0.998,1v3c0,0.552,0.447,1,0.998,1c0.552,0,0.997-0.448,0.997-1v-0.526
			l2.229,2.207c0.408,0.404,1.068,0.404,1.475,0C23.118,22.276,23.118,21.62,22.711,21.215z M14.021,10
			c-0.552,0-0.998,0.447-0.998,1v0.525l-2.229-2.206C10.387,8.914,9.727,8.914,9.32,9.318c-0.408,0.405-0.408,1.062,0,1.466
			L11.558,13h-0.528c-0.552,0-0.998,0.447-0.998,1c0,0.552,0.446,1,0.998,1h2.991c0.551,0,0.997-0.448,0.997-1v-3
			C15.018,10.447,14.571,10,14.021,10z"/>
	</g>
</g>
<g>
</g>
<g>
</g>
<g>
</g>
<g>
</g>
<g>
</g>
<g>
</g>
<g>
</g>
<g>
</g>
<g>
</g>
<g>
</g>
<g>
</g>
<g>
</g>
<g>
</g>
<g>
</g>
<g>
</g>
</svg>
