<?xml version="1.0" encoding="iso-8859-1"?>
<!-- Generator: Adobe Illustrator 16.0.0, SVG Export Plug-In . SVG Version: 6.00 Build 0)  -->
<!DOCTYPE svg PUBLIC "-//W3C//DTD SVG 1.1//EN" "http://www.w3.org/Graphics/SVG/1.1/DTD/svg11.dtd">
<svg version="1.1" id="Layer_1" xmlns="http://www.w3.org/2000/svg" xmlns:xlink="http://www.w3.org/1999/xlink" x="0px" y="0px"
	 width="32.008px" height="33.997px" viewBox="0 0 32.008 33.997" style="enable-background:new 0 0 32.008 33.997;"
	 xml:space="preserve">
<g id="Elipse_1_">
	<g>
		<path style="fill-rule:evenodd;clip-rule:evenodd;fill:#CCCCCC;" d="M16,30C8.268,30,2,23.731,2,15.999c0-7.731,6.268-14,14-14
			s14,6.269,14,14c0,2.146-0.497,4.172-1.36,5.99c0.687-0.071,1.391,0.081,1.986,0.479C31.503,20.489,32,18.304,32,15.999
			C32,7.163,24.837,0,16,0S0,7.163,0,15.999c0,8.837,7.163,16,16,16c1.379,0,2.711-0.193,3.987-0.521
			c-0.129-0.762,0.034-1.561,0.491-2.223C19.07,29.73,17.568,30,16,30z"/>
	</g>
</g>
<g id="Contact_1_">
	<g>
		<path style="fill-rule:evenodd;clip-rule:evenodd;fill:#48A0DC;" d="M18.896,14.746C19.576,14.029,20,13.066,20,12
			c0-2.209-1.791-4-4-4s-4,1.791-4,4c0,1.066,0.424,2.029,1.104,2.746C11.254,15.769,10,17.737,10,20v0.719V21c0,0.552,0.447,1,1,1
			h0.375h9.344H21c0.553,0,1-0.448,1-1v-0.188V20C22,17.737,20.746,15.769,18.896,14.746z M16,10c1.104,0,2,0.896,2,2s-0.896,2-2,2
			s-2-0.896-2-2S14.896,10,16,10z M12,20c0-2.209,1.791-4,4-4s4,1.791,4,4H12z"/>
	</g>
</g>
<g id="Remove">
	<g>
		<path style="fill-rule:evenodd;clip-rule:evenodd;fill:#ED7161;" d="M29.715,30.363l-2.352-2.352l2.352-2.352
			c0.371-0.371,0.371-0.974,0-1.346c-0.372-0.371-0.974-0.371-1.346,0l-2.352,2.352l-2.381-2.381c-0.373-0.374-0.978-0.374-1.351,0
			c-0.373,0.372-0.373,0.978,0,1.351l2.381,2.381l-2.353,2.353c-0.371,0.372-0.371,0.974,0,1.346c0.372,0.371,0.975,0.371,1.346,0
			l2.353-2.353l2.352,2.351c0.373,0.374,0.978,0.374,1.351,0C30.088,31.341,30.088,30.736,29.715,30.363z"/>
	</g>
</g>
<g>
</g>
<g>
</g>
<g>
</g>
<g>
</g>
<g>
</g>
<g>
</g>
<g>
</g>
<g>
</g>
<g>
</g>
<g>
</g>
<g>
</g>
<g>
</g>
<g>
</g>
<g>
</g>
<g>
</g>
</svg>
