<?xml version="1.0" encoding="iso-8859-1"?>
<!-- Generator: Adobe Illustrator 16.0.0, SVG Export Plug-In . SVG Version: 6.00 Build 0)  -->
<!DOCTYPE svg PUBLIC "-//W3C//DTD SVG 1.1//EN" "http://www.w3.org/Graphics/SVG/1.1/DTD/svg11.dtd">
<svg version="1.1" id="Layer_1" xmlns="http://www.w3.org/2000/svg" xmlns:xlink="http://www.w3.org/1999/xlink" x="0px" y="0px"
	 width="34px" height="34px" viewBox="0 0 34 34" style="enable-background:new 0 0 34 34;" xml:space="preserve">
<g id="Elipse_5_">
	<g>
		<path style="fill-rule:evenodd;clip-rule:evenodd;fill:#CCCCCC;" d="M18.908,29.693C17.969,29.892,16.998,30,16,30
			C8.268,30,2,23.731,2,15.999c0-7.731,6.268-14,14-14s14,6.269,14,14c0,0.998-0.108,1.971-0.307,2.909
			c0.638,0.333,1.223,0.751,1.745,1.236C31.793,18.82,32,17.436,32,15.999C32,7.163,24.836,0,16,0S0,7.163,0,15.999
			c0,8.837,7.164,16,16,16c1.436,0,2.82-0.207,4.144-0.562C19.659,30.915,19.241,30.331,18.908,29.693z"/>
	</g>
</g>
<g id="Elipse_6_">
	<g>
		<circle style="fill:#ED7161;" cx="26" cy="26" r="6"/>
	</g>
</g>
<g id="Minus">
	<g>
		<path style="fill:#FFFFFF;" d="M28,25h-4c-0.552,0-1,0.447-1,1c0,0.552,0.448,0.999,1,0.999h4c0.552,0,1-0.447,1-0.999
			C29,25.447,28.552,25,28,25z"/>
	</g>
</g>
<g id="Contact_5_">
	<g>
		<path style="fill-rule:evenodd;clip-rule:evenodd;fill:#48A0DC;" d="M21.933,19.12c-0.278-1.886-1.431-3.487-3.037-4.374
			C19.576,14.029,20,13.066,20,12c0-2.209-1.791-4-4-4s-4,1.791-4,4c0,1.066,0.424,2.029,1.104,2.746C11.254,15.769,10,17.737,10,20
			v0.719V21c0,0.552,0.448,1,1,1h0.375h7.704C19.768,20.812,20.752,19.819,21.933,19.12z M16,10c1.104,0,2,0.896,2,2s-0.896,2-2,2
			s-2-0.896-2-2S14.896,10,16,10z M16,16c2.209,0,4,1.791,4,4h-8C12,17.791,13.791,16,16,16z"/>
	</g>
</g>
<g>
</g>
<g>
</g>
<g>
</g>
<g>
</g>
<g>
</g>
<g>
</g>
<g>
</g>
<g>
</g>
<g>
</g>
<g>
</g>
<g>
</g>
<g>
</g>
<g>
</g>
<g>
</g>
<g>
</g>
</svg>
