<?xml version="1.0" encoding="iso-8859-1"?>
<!-- Generator: Adobe Illustrator 16.0.0, SVG Export Plug-In . SVG Version: 6.00 Build 0)  -->
<!DOCTYPE svg PUBLIC "-//W3C//DTD SVG 1.1//EN" "http://www.w3.org/Graphics/SVG/1.1/DTD/svg11.dtd">
<svg version="1.1" id="Layer_1" xmlns="http://www.w3.org/2000/svg" xmlns:xlink="http://www.w3.org/1999/xlink" x="0px" y="0px"
	 width="32px" height="31.999px" viewBox="0 0 32 31.999" style="enable-background:new 0 0 32 31.999;" xml:space="preserve">
<g id="Elipse_9_">
	<g>
		<path style="fill-rule:evenodd;clip-rule:evenodd;fill:#CCCCCC;" d="M16,0C7.164,0,0,7.163,0,15.999c0,8.837,7.164,16,16,16
			s16-7.163,16-16C32,7.163,24.836,0,16,0z M16,30C8.268,30,2,23.731,2,15.999c0-7.731,6.268-14,14-14s14,6.269,14,14
			C30,23.731,23.732,30,16,30z"/>
	</g>
</g>
<g id="Contact_7_">
	<g>
		<path style="fill-rule:evenodd;clip-rule:evenodd;fill:#48A0DC;" d="M18.896,14.746C19.576,14.029,20,13.066,20,12
			c0-2.209-1.791-4-4-4s-4,1.791-4,4c0,1.066,0.424,2.029,1.104,2.746C11.254,15.769,10,17.737,10,20v0.719V21c0,0.552,0.448,1,1,1
			h0.375h9.344H21c0.552,0,1-0.448,1-1v-0.188V20C22,17.737,20.746,15.769,18.896,14.746z M16,10c1.104,0,2,0.896,2,2s-0.896,2-2,2
			s-2-0.896-2-2S14.896,10,16,10z M12,20c0-2.209,1.791-4,4-4s4,1.791,4,4H12z"/>
	</g>
</g>
<g>
</g>
<g>
</g>
<g>
</g>
<g>
</g>
<g>
</g>
<g>
</g>
<g>
</g>
<g>
</g>
<g>
</g>
<g>
</g>
<g>
</g>
<g>
</g>
<g>
</g>
<g>
</g>
<g>
</g>
</svg>
