<?xml version="1.0" encoding="iso-8859-1"?>
<!-- Generator: Adobe Illustrator 16.0.0, SVG Export Plug-In . SVG Version: 6.00 Build 0)  -->
<!DOCTYPE svg PUBLIC "-//W3C//DTD SVG 1.1//EN" "http://www.w3.org/Graphics/SVG/1.1/DTD/svg11.dtd">
<svg version="1.1" id="Layer_1" xmlns="http://www.w3.org/2000/svg" xmlns:xlink="http://www.w3.org/1999/xlink" x="0px" y="0px"
	 width="33px" height="33.999px" viewBox="0 0 33 33.999" style="enable-background:new 0 0 33 33.999;" xml:space="preserve">
<g id="Elipse">
	<g>
		<path style="fill-rule:evenodd;clip-rule:evenodd;fill:#CCCCCC;" d="M16,1.999c7.732,0,14,6.269,14,14
			c0,1.674-0.299,3.274-0.84,4.761c0.618,0.313,1.184,0.715,1.68,1.19c0.74-1.842,1.16-3.845,1.16-5.951C32,7.163,24.837,0,16,0
			S0,7.163,0,15.999c0,8.837,7.163,16,16,16c1.57,0,3.083-0.235,4.516-0.658c-0.429-0.54-0.776-1.145-1.031-1.797
			C18.369,29.834,17.205,30,16,30C8.268,30,2,23.731,2,15.999C2,8.268,8.268,1.999,16,1.999z"/>
	</g>
</g>
<g id="Contact">
	<g>
		<path style="fill-rule:evenodd;clip-rule:evenodd;fill:#48A0DC;" d="M18.896,14.746C19.576,14.029,20,13.066,20,12
			c0-2.209-1.791-4-4-4s-4,1.791-4,4c0,1.066,0.424,2.029,1.104,2.746C11.254,15.769,10,17.737,10,20v0.719V21c0,0.552,0.447,1,1,1
			h0.375h7.809c0.413-1.163,1.512-2,2.816-2C22,17.737,20.746,15.769,18.896,14.746z M16,10c1.104,0,2,0.896,2,2s-0.896,2-2,2
			s-2-0.896-2-2S14.896,10,16,10z M12,20c0-2.209,1.791-4,4-4s4,1.791,4,4H12z"/>
	</g>
</g>
<g id="Refresh">
	<g>
		<path style="fill-rule:evenodd;clip-rule:evenodd;fill:#88C057;" d="M25,27c0.552,0,1-0.448,1-1.001c0-0.552-0.448-1-1-1h-1.213
			c0.546-0.609,1.329-1,2.213-1c0.886,0,1.673,0.391,2.223,1.001h2.355c-0.771-1.766-2.528-3.001-4.578-3.001
			c-1.13,0-2.165,0.383-3,1.016v-0.016c0-0.552-0.448-1-1-1c-0.553,0-1,0.448-1,1v3C21,26.552,21.447,27,22,27H25z M30,26.999h-3
			c-0.553,0-1,0.447-1,0.999c0,0.554,0.447,1.001,1,1.001h1.214c-0.546,0.61-1.329,1-2.214,1c-0.886,0-1.673-0.391-2.222-1h-2.356
			c0.772,1.764,2.528,3,4.578,3c1.13,0,2.163-0.386,3-1.018v0.018c0,0.553,0.447,1,1,1c0.552,0,1-0.447,1-1V28v-0.001v-0.001
			C31,27.446,30.552,26.999,30,26.999z"/>
	</g>
</g>
<g>
</g>
<g>
</g>
<g>
</g>
<g>
</g>
<g>
</g>
<g>
</g>
<g>
</g>
<g>
</g>
<g>
</g>
<g>
</g>
<g>
</g>
<g>
</g>
<g>
</g>
<g>
</g>
<g>
</g>
</svg>
