<?xml version="1.0" encoding="iso-8859-1"?>
<!-- Generator: Adobe Illustrator 16.0.0, SVG Export Plug-In . SVG Version: 6.00 Build 0)  -->
<!DOCTYPE svg PUBLIC "-//W3C//DTD SVG 1.1//EN" "http://www.w3.org/Graphics/SVG/1.1/DTD/svg11.dtd">
<svg version="1.1" id="Layer_1" xmlns="http://www.w3.org/2000/svg" xmlns:xlink="http://www.w3.org/1999/xlink" x="0px" y="0px"
	 width="33px" height="33.999px" viewBox="0 0 33 33.999" style="enable-background:new 0 0 33 33.999;" xml:space="preserve">
<g id="Elipse_4_">
	<g>
		<path style="fill-rule:evenodd;clip-rule:evenodd;fill:#CCCCCC;" d="M19,29.668C18.033,29.881,17.031,30,16,30
			C8.268,30,2,23.731,2,15.999c0-7.731,6.268-14,14-14s14,6.269,14,14c0,0.803-0.083,1.584-0.212,2.35
			c0.668,0.544,1.211,1.231,1.595,2.013C31.775,18.973,32,17.514,32,15.999C32,7.163,24.837,0,16,0S0,7.163,0,15.999
			c0,8.837,7.163,16,16,16c1.027,0,2.027-0.108,3-0.296V29.668z"/>
	</g>
</g>
<g id="Contact_4_">
	<g>
		<path style="fill-rule:evenodd;clip-rule:evenodd;fill:#48A0DC;" d="M21.841,18.682c-0.381-1.692-1.466-3.118-2.945-3.936
			C19.576,14.029,20,13.066,20,12c0-2.209-1.791-4-4-4s-4,1.791-4,4c0,1.066,0.424,2.029,1.104,2.746C11.254,15.769,10,17.737,10,20
			v0.719V21c0,0.552,0.447,1,1,1h0.375h8.715C20.308,20.706,20.936,19.554,21.841,18.682z M16,10c1.104,0,2,0.896,2,2s-0.896,2-2,2
			s-2-0.896-2-2S14.896,10,16,10z M16,16c2.209,0,4,1.791,4,4h-8C12,17.791,13.791,16,16,16z"/>
	</g>
</g>
<g id="Lock_1_">
	<g>
		<path style="fill-rule:evenodd;clip-rule:evenodd;fill:#88C057;" d="M30,25.999v-3c0-2.209-1.791-4-4-4s-4,1.791-4,4v1h2v-1
			c0-1.104,0.896-2,2-2s2,0.896,2,2v3h-4h-2c-0.553,0-1,0.447-1,1v4c0,0.552,0.447,1,1,1h8c0.552,0,1-0.448,1-1v-4
			C31,26.446,30.552,25.999,30,25.999z M26,29.999c-0.553,0-1-0.448-1-1s0.447-1,1-1c0.552,0,1,0.448,1,1S26.552,29.999,26,29.999z"
			/>
	</g>
</g>
<g>
</g>
<g>
</g>
<g>
</g>
<g>
</g>
<g>
</g>
<g>
</g>
<g>
</g>
<g>
</g>
<g>
</g>
<g>
</g>
<g>
</g>
<g>
</g>
<g>
</g>
<g>
</g>
<g>
</g>
</svg>
