<?xml version="1.0" encoding="iso-8859-1"?>
<!-- Generator: Adobe Illustrator 16.0.0, SVG Export Plug-In . SVG Version: 6.00 Build 0)  -->
<!DOCTYPE svg PUBLIC "-//W3C//DTD SVG 1.1//EN" "http://www.w3.org/Graphics/SVG/1.1/DTD/svg11.dtd">
<svg version="1.1" id="Layer_1" xmlns="http://www.w3.org/2000/svg" xmlns:xlink="http://www.w3.org/1999/xlink" x="0px" y="0px"
	 width="32.976px" height="34.029px" viewBox="0 0 32.976 34.029" style="enable-background:new 0 0 32.976 34.029;"
	 xml:space="preserve">
<g id="Elipse_2_">
	<g>
		<path style="fill-rule:evenodd;clip-rule:evenodd;fill:#CCCCCC;" d="M16,0C7.163,0,0,7.163,0,15.999c0,8.837,7.163,16,16,16
			c1.716,0,3.359-0.289,4.907-0.792l-1.03-1.03c-0.185-0.185-0.33-0.392-0.457-0.606C18.325,29.848,17.181,30,16,30
			C8.268,30,2,23.731,2,15.999c0-7.731,6.268-14,14-14s14,6.269,14,14c0,3.29-1.143,6.31-3.043,8.699l0.852-0.851
			c0.698-0.7,1.653-0.976,2.562-0.848c1.034-2.117,1.63-4.486,1.63-7.001C32,7.163,24.837,0,16,0z"/>
	</g>
</g>
<g id="Contact_2_">
	<g>
		<path style="fill-rule:evenodd;clip-rule:evenodd;fill:#48A0DC;" d="M18.896,14.746C19.576,14.029,20,13.066,20,12
			c0-2.209-1.791-4-4-4s-4,1.791-4,4c0,1.066,0.424,2.029,1.104,2.746C11.254,15.769,10,17.737,10,20v0.719V21c0,0.552,0.447,1,1,1
			h0.375h9.344H21c0.552,0,1-0.448,1-1v-0.188V20C22,17.737,20.746,15.769,18.896,14.746z M16,10c1.104,0,2,0.896,2,2s-0.896,2-2,2
			s-2-0.896-2-2S14.896,10,16,10z M12,20c0-2.209,1.791-4,4-4s4,1.791,4,4H12z"/>
	</g>
</g>
<g id="Ok">
	<g>
		<path style="fill-rule:evenodd;clip-rule:evenodd;fill:#88C057;" d="M30.696,25.282c-0.394-0.395-1.033-0.395-1.427,0
			l-4.261,4.261l-2.255-2.259c-0.403-0.404-1.057-0.404-1.46,0s-0.403,1.059,0,1.463l2.921,2.926
			c0.106,0.106,0.231,0.182,0.363,0.231c0.371,0.167,0.819,0.104,1.124-0.201l4.994-4.994C31.09,26.314,31.09,25.676,30.696,25.282z
			"/>
	</g>
</g>
<g>
</g>
<g>
</g>
<g>
</g>
<g>
</g>
<g>
</g>
<g>
</g>
<g>
</g>
<g>
</g>
<g>
</g>
<g>
</g>
<g>
</g>
<g>
</g>
<g>
</g>
<g>
</g>
<g>
</g>
</svg>
