<?xml version="1.0" encoding="iso-8859-1"?>
<!-- Generator: Adobe Illustrator 16.0.0, SVG Export Plug-In . SVG Version: 6.00 Build 0)  -->
<!DOCTYPE svg PUBLIC "-//W3C//DTD SVG 1.1//EN" "http://www.w3.org/Graphics/SVG/1.1/DTD/svg11.dtd">
<svg version="1.1" id="Layer_1" xmlns="http://www.w3.org/2000/svg" xmlns:xlink="http://www.w3.org/1999/xlink" x="0px" y="0px"
	 width="32px" height="32px" viewBox="0 0 32 32" style="enable-background:new 0 0 32 32;" xml:space="preserve">
<g id="Elipse_38_">
	<g>
		<path style="fill-rule:evenodd;clip-rule:evenodd;fill:#CCCCCC;" d="M16,0C7.163,0,0,7.163,0,16c0,8.836,7.163,16,16,16
			s16-7.164,16-16C32,7.163,24.837,0,16,0z M16,30C8.268,30,2,23.731,2,16C2,8.268,8.268,2,16,2s14,6.268,14,14
			C30,23.731,23.732,30,16,30z"/>
	</g>
</g>
<g id="Arrow_4_">
	<g>
		<path style="fill-rule:evenodd;clip-rule:evenodd;fill:#ED7161;" d="M19.675,16.293c-0.405-0.404-1.062-0.404-1.466,0L17,17.497
			V12c0-0.553-0.447-1.001-1-1.001S15,11.447,15,12v5.545l-1.245-1.25c-0.403-0.404-1.058-0.404-1.461,0s-0.403,1.061,0,1.465
			l2.921,2.931c0.194,0.194,0.446,0.285,0.7,0.292C15.944,20.985,15.97,21,16,21c0.192,0,0.36-0.068,0.513-0.162
			c0.052-0.026,0.101-0.063,0.148-0.1c0.016-0.015,0.037-0.023,0.052-0.039c0.009-0.009,0.021-0.014,0.03-0.022l2.933-2.923
			C20.08,17.35,20.08,16.696,19.675,16.293z"/>
	</g>
</g>
<g>
</g>
<g>
</g>
<g>
</g>
<g>
</g>
<g>
</g>
<g>
</g>
<g>
</g>
<g>
</g>
<g>
</g>
<g>
</g>
<g>
</g>
<g>
</g>
<g>
</g>
<g>
</g>
<g>
</g>
</svg>
