<?xml version="1.0" encoding="iso-8859-1"?>
<!-- Generator: Adobe Illustrator 16.0.0, SVG Export Plug-In . SVG Version: 6.00 Build 0)  -->
<!DOCTYPE svg PUBLIC "-//W3C//DTD SVG 1.1//EN" "http://www.w3.org/Graphics/SVG/1.1/DTD/svg11.dtd">
<svg version="1.1" id="Layer_1" xmlns="http://www.w3.org/2000/svg" xmlns:xlink="http://www.w3.org/1999/xlink" x="0px" y="0px"
	 width="32px" height="32px" viewBox="0 0 32 32" style="enable-background:new 0 0 32 32;" xml:space="preserve">
<g id="Elipse_86_">
	<g>
		<path style="fill-rule:evenodd;clip-rule:evenodd;fill:#CCCCCC;" d="M16,0C7.163,0,0,7.164,0,16c0,8.837,7.163,16,16,16
			s16-7.163,16-16C32,7.164,24.837,0,16,0z M16,30C8.268,30,2,23.731,2,16C2,8.268,8.268,2,16,2s14,6.268,14,14
			C30,23.731,23.732,30,16,30z"/>
	</g>
</g>
<g id="Eject">
	<g>
		<path style="fill-rule:evenodd;clip-rule:evenodd;fill:#48A0DC;" d="M20,19h-8c-0.552,0-1,0.448-1,1c0,0.553,0.448,1,1,1h8
			c0.553,0,1.001-0.447,1.001-1C21.001,19.448,20.553,19,20,19z M12,18h8c0.552,0,1-0.447,1-1c0-0.186-0.064-0.35-0.153-0.499
			l-3.812-6.005c-0.206-0.324-0.583-0.488-0.968-0.482c-0.022-0.003-0.045-0.002-0.067-0.004c-0.023,0.002-0.045,0.001-0.067,0.004
			c-0.385-0.006-0.763,0.158-0.968,0.482l-3.802,5.988c-0.095,0.153-0.164,0.322-0.164,0.516C10.999,17.553,11.447,18,12,18z"/>
	</g>
</g>
<g>
</g>
<g>
</g>
<g>
</g>
<g>
</g>
<g>
</g>
<g>
</g>
<g>
</g>
<g>
</g>
<g>
</g>
<g>
</g>
<g>
</g>
<g>
</g>
<g>
</g>
<g>
</g>
<g>
</g>
</svg>
