<?xml version="1.0" encoding="iso-8859-1"?>
<!-- Generator: Adobe Illustrator 16.0.0, SVG Export Plug-In . SVG Version: 6.00 Build 0)  -->
<!DOCTYPE svg PUBLIC "-//W3C//DTD SVG 1.1//EN" "http://www.w3.org/Graphics/SVG/1.1/DTD/svg11.dtd">
<svg version="1.1" id="Layer_1" xmlns="http://www.w3.org/2000/svg" xmlns:xlink="http://www.w3.org/1999/xlink" x="0px" y="0px"
	 width="32px" height="32px" viewBox="0 0 32 32" style="enable-background:new 0 0 32 32;" xml:space="preserve">
<g id="Elipse_83_">
	<g>
		<path style="fill-rule:evenodd;clip-rule:evenodd;fill:#CCCCCC;" d="M16,0C7.164,0,0,7.163,0,15.999C0,24.836,7.164,32,16,32
			s16-7.164,16-16.001C32,7.163,24.836,0,16,0z M16,30C8.268,30,2,23.731,2,15.999C2,8.268,8.268,2,16,2s14,6.268,14,13.999
			C30,23.731,23.732,30,16,30z"/>
	</g>
</g>
<g id="Equalizer">
	<g>
		<path style="fill-rule:evenodd;clip-rule:evenodd;fill:#88C057;" d="M22,14v-3c0-0.553-0.448-1-1-1s-1,0.447-1,1v3
			c-0.552,0-1,0.447-1,1c0,0.552,0.448,0.999,1,0.999v5C20,21.552,20.448,22,21,22s1-0.448,1-1.001v-5c0.552,0,1-0.447,1-0.999
			C23,14.447,22.552,14,22,14z M17,13v-2c0-0.553-0.448-1-1-1s-1,0.447-1,1v2c-0.552,0-1,0.447-1,1c0,0.552,0.448,1,1,1v5.999
			C15,21.552,15.448,22,16,22s1-0.448,1-1.001V15c0.552,0,1-0.448,1-1C18,13.447,17.552,13,17,13z M12,17v-6c0-0.553-0.448-1-1-1
			s-1,0.447-1,1v6c-0.552,0-1,0.447-1,1c0,0.552,0.448,1,1,1v1.999C10,21.552,10.448,22,11,22s1-0.448,1-1.001V19
			c0.552,0,1-0.448,1-1C13,17.447,12.552,17,12,17z"/>
	</g>
</g>
<g>
</g>
<g>
</g>
<g>
</g>
<g>
</g>
<g>
</g>
<g>
</g>
<g>
</g>
<g>
</g>
<g>
</g>
<g>
</g>
<g>
</g>
<g>
</g>
<g>
</g>
<g>
</g>
<g>
</g>
</svg>
