<?xml version="1.0" encoding="iso-8859-1"?>
<!-- Generator: Adobe Illustrator 16.0.0, SVG Export Plug-In . SVG Version: 6.00 Build 0)  -->
<!DOCTYPE svg PUBLIC "-//W3C//DTD SVG 1.1//EN" "http://www.w3.org/Graphics/SVG/1.1/DTD/svg11.dtd">
<svg version="1.1" id="Layer_1" xmlns="http://www.w3.org/2000/svg" xmlns:xlink="http://www.w3.org/1999/xlink" x="0px" y="0px"
	 width="32px" height="32px" viewBox="0 0 32 32" style="enable-background:new 0 0 32 32;" xml:space="preserve">
<g id="Elipse_64_">
	<g>
		<path style="fill-rule:evenodd;clip-rule:evenodd;fill:#CCCCCC;" d="M16,0C7.163,0,0,7.163,0,16s7.163,16,16,16s16-7.163,16-16
			S24.837,0,16,0z M16,30C8.268,30,2,23.731,2,16C2,8.268,8.268,2,16,2c7.731,0,14,6.268,14,14C30,23.731,23.731,30,16,30z"/>
	</g>
</g>
<g id="Question">
	<g>
		<path style="fill-rule:evenodd;clip-rule:evenodd;fill:#9B7CAB;" d="M16,9.999c-2.209,0-4,1.791-4,4.001
			c0,0.552,0.447,0.999,1,0.999c0.552,0,1-0.447,1-0.999c0-1.105,0.896-2.001,2-2.001s2,0.896,2,2.001c0,2.073-3,1.438-3,4.999h2
			c0-1.905,3-1.665,3-4.999C20,11.79,18.209,9.999,16,9.999z M16,19.999c-0.553,0-1,0.448-1,1.001c0,0.552,0.447,1,1,1
			c0.552,0,1-0.448,1-1C17,20.447,16.552,19.999,16,19.999z"/>
	</g>
</g>
<g>
</g>
<g>
</g>
<g>
</g>
<g>
</g>
<g>
</g>
<g>
</g>
<g>
</g>
<g>
</g>
<g>
</g>
<g>
</g>
<g>
</g>
<g>
</g>
<g>
</g>
<g>
</g>
<g>
</g>
</svg>
