<?xml version="1.0" encoding="iso-8859-1"?>
<!-- Generator: Adobe Illustrator 16.0.0, SVG Export Plug-In . SVG Version: 6.00 Build 0)  -->
<!DOCTYPE svg PUBLIC "-//W3C//DTD SVG 1.1//EN" "http://www.w3.org/Graphics/SVG/1.1/DTD/svg11.dtd">
<svg version="1.1" id="Layer_1" xmlns="http://www.w3.org/2000/svg" xmlns:xlink="http://www.w3.org/1999/xlink" x="0px" y="0px"
	 width="32px" height="32px" viewBox="0 0 32 32" style="enable-background:new 0 0 32 32;" xml:space="preserve">
<g id="Elipse_26_">
	<g>
		<path style="fill-rule:evenodd;clip-rule:evenodd;fill:#CCCCCC;" d="M16,0C7.163,0,0,7.163,0,16s7.163,16,16,16
			c8.836,0,16-7.163,16-16S24.836,0,16,0z M16,30C8.268,30,2,23.732,2,16C2,8.269,8.268,2,16,2c7.731,0,14,6.269,14,14
			C30,23.732,23.731,30,16,30z"/>
	</g>
</g>
<g id="Home">
	<g>
		<path style="fill-rule:evenodd;clip-rule:evenodd;fill:#48A0DC;" d="M20,17.001c-0.553,0-1,0.447-1,0.999v3.001h-6V18
			c0-0.552-0.448-0.999-1-0.999c-0.553,0-1,0.447-1,0.999v4.001C11,22.553,11.447,23,12,23h8c0.552,0,1-0.447,1-0.999V18
			C21,17.448,20.552,17.001,20,17.001z M22.711,15.2L16.8,9.29c-0.22-0.22-0.512-0.312-0.8-0.294c-0.288-0.018-0.58,0.074-0.8,0.294
			L9.289,15.2c-0.408,0.409-0.408,1.07,0,1.479s1.07,0.408,1.478,0L16,11.445l5.232,5.233c0.408,0.408,1.07,0.408,1.479,0
			C23.118,16.271,23.118,15.609,22.711,15.2z"/>
	</g>
</g>
<g>
</g>
<g>
</g>
<g>
</g>
<g>
</g>
<g>
</g>
<g>
</g>
<g>
</g>
<g>
</g>
<g>
</g>
<g>
</g>
<g>
</g>
<g>
</g>
<g>
</g>
<g>
</g>
<g>
</g>
</svg>
