<?xml version="1.0" encoding="iso-8859-1"?>
<!-- Generator: Adobe Illustrator 16.0.0, SVG Export Plug-In . SVG Version: 6.00 Build 0)  -->
<!DOCTYPE svg PUBLIC "-//W3C//DTD SVG 1.1//EN" "http://www.w3.org/Graphics/SVG/1.1/DTD/svg11.dtd">
<svg version="1.1" id="Layer_1" xmlns="http://www.w3.org/2000/svg" xmlns:xlink="http://www.w3.org/1999/xlink" x="0px" y="0px"
	 width="32px" height="32px" viewBox="0 0 32 32" style="enable-background:new 0 0 32 32;" xml:space="preserve">
<g id="Elipse_28_">
	<g>
		<path style="fill-rule:evenodd;clip-rule:evenodd;fill:#CCCCCC;" d="M16,0C7.163,0,0,7.163,0,16s7.163,16,16,16s16-7.163,16-16
			S24.837,0,16,0z M16,30C8.268,30,2,23.732,2,16C2,8.269,8.268,2,16,2c7.731,0,14,6.269,14,14C30,23.732,23.731,30,16,30z"/>
	</g>
</g>
<g id="Key">
	<g>
		<path style="fill-rule:evenodd;clip-rule:evenodd;fill:#88C057;" d="M18.5,9.001c-2.485,0-4.5,2.015-4.5,4.499
			c0,0.463,0.09,0.899,0.22,1.319l-4.63,4.63C9.155,19.884,9,21.001,9,21.001l2,2v-1h2v-2h2v-2l1.327-0.582
			c0.647,0.359,1.381,0.582,2.173,0.582c2.485,0,4.5-2.015,4.5-4.501C23,11.016,20.985,9.001,18.5,9.001z M19,14.001
			c-0.553,0-1-0.448-1-1c0-0.553,0.447-1,1-1s1,0.447,1,1C20,13.553,19.553,14.001,19,14.001z"/>
	</g>
</g>
<g>
</g>
<g>
</g>
<g>
</g>
<g>
</g>
<g>
</g>
<g>
</g>
<g>
</g>
<g>
</g>
<g>
</g>
<g>
</g>
<g>
</g>
<g>
</g>
<g>
</g>
<g>
</g>
<g>
</g>
</svg>
