<?xml version="1.0" encoding="iso-8859-1"?>
<!-- Generator: Adobe Illustrator 16.0.0, SVG Export Plug-In . SVG Version: 6.00 Build 0)  -->
<!DOCTYPE svg PUBLIC "-//W3C//DTD SVG 1.1//EN" "http://www.w3.org/Graphics/SVG/1.1/DTD/svg11.dtd">
<svg version="1.1" id="Layer_1" xmlns="http://www.w3.org/2000/svg" xmlns:xlink="http://www.w3.org/1999/xlink" x="0px" y="0px"
	 width="32px" height="32px" viewBox="0 0 32 32" style="enable-background:new 0 0 32 32;" xml:space="preserve">
<g id="Elipse_41_">
	<g>
		<path style="fill-rule:evenodd;clip-rule:evenodd;fill:#CCCCCC;" d="M16,0C7.164,0,0,7.163,0,16c0,8.836,7.164,16,16,16
			s16-7.164,16-16C32,7.163,24.836,0,16,0z M16,30C8.268,30,2,23.731,2,16C2,8.268,8.268,2,16,2s14,6.268,14,14
			C30,23.731,23.732,30,16,30z"/>
	</g>
</g>
<g id="Arrow_7_">
	<g>
		<path style="fill-rule:evenodd;clip-rule:evenodd;fill:#48A0DC;" d="M20,15h-5.545l1.25-1.246c0.405-0.402,0.405-1.057,0-1.46
			c-0.404-0.403-1.061-0.403-1.465,0l-2.93,2.92c-0.194,0.194-0.285,0.446-0.292,0.7C11.015,15.943,11,15.97,11,16
			c0,0.19,0.068,0.359,0.161,0.511c0.027,0.053,0.062,0.101,0.1,0.147c0.015,0.018,0.024,0.038,0.041,0.055
			c0.008,0.009,0.013,0.02,0.021,0.028l2.923,2.934c0.403,0.405,1.058,0.405,1.461,0c0.404-0.405,0.404-1.062,0-1.467L14.503,17H20
			c0.553,0,1-0.448,1-1C21,15.447,20.553,15,20,15z"/>
	</g>
</g>
<g>
</g>
<g>
</g>
<g>
</g>
<g>
</g>
<g>
</g>
<g>
</g>
<g>
</g>
<g>
</g>
<g>
</g>
<g>
</g>
<g>
</g>
<g>
</g>
<g>
</g>
<g>
</g>
<g>
</g>
</svg>
