<?xml version="1.0" encoding="iso-8859-1"?>
<!-- Generator: Adobe Illustrator 16.0.0, SVG Export Plug-In . SVG Version: 6.00 Build 0)  -->
<!DOCTYPE svg PUBLIC "-//W3C//DTD SVG 1.1//EN" "http://www.w3.org/Graphics/SVG/1.1/DTD/svg11.dtd">
<svg version="1.1" id="Layer_1" xmlns="http://www.w3.org/2000/svg" xmlns:xlink="http://www.w3.org/1999/xlink" x="0px" y="0px"
	 width="32px" height="32px" viewBox="0 0 32 32" style="enable-background:new 0 0 32 32;" xml:space="preserve">
<g id="Elipse_33_">
	<g>
		<path style="fill-rule:evenodd;clip-rule:evenodd;fill:#CCCCCC;" d="M16,0C7.164,0,0,7.163,0,16s7.164,16,16,16s16-7.163,16-16
			S24.836,0,16,0z M16,30C8.268,30,2,23.732,2,16C2,8.269,8.268,2,16,2s14,6.269,14,14C30,23.732,23.732,30,16,30z"/>
	</g>
</g>
<g id="Location">
	<g>
		<path style="fill:#88C057;" d="M20.895,11.093c-0.148-0.147-0.361-0.104-0.542-0.042L9.444,14.878
			c-0.259,0.083-0.449,0.318-0.449,0.605c0,0.292,0.252,0.462,0.465,0.608l5.237,1.205l1.204,5.243
			c0.146,0.213,0.315,0.466,0.608,0.466c0.286-0.001,0.521-0.19,0.604-0.449l3.822-10.922
			C20.998,11.455,21.042,11.241,20.895,11.093z"/>
	</g>
</g>
<g>
</g>
<g>
</g>
<g>
</g>
<g>
</g>
<g>
</g>
<g>
</g>
<g>
</g>
<g>
</g>
<g>
</g>
<g>
</g>
<g>
</g>
<g>
</g>
<g>
</g>
<g>
</g>
<g>
</g>
</svg>
