<?xml version="1.0" encoding="iso-8859-1"?>
<!-- Generator: Adobe Illustrator 16.0.0, SVG Export Plug-In . SVG Version: 6.00 Build 0)  -->
<!DOCTYPE svg PUBLIC "-//W3C//DTD SVG 1.1//EN" "http://www.w3.org/Graphics/SVG/1.1/DTD/svg11.dtd">
<svg version="1.1" id="Layer_1" xmlns="http://www.w3.org/2000/svg" xmlns:xlink="http://www.w3.org/1999/xlink" x="0px" y="0px"
	 width="32px" height="31.999px" viewBox="0 0 32 31.999" style="enable-background:new 0 0 32 31.999;" xml:space="preserve">
<g id="Elipse_63_">
	<g>
		<path style="fill-rule:evenodd;clip-rule:evenodd;fill:#CCCCCC;" d="M16,0C7.163,0,0,7.163,0,15.999c0,8.837,7.163,16,16,16
			s16-7.163,16-16C32,7.163,24.837,0,16,0z M16,30C8.268,30,2,23.731,2,15.999c0-7.731,6.268-14,14-14s14,6.269,14,14
			C30,23.731,23.732,30,16,30z"/>
	</g>
</g>
<g id="Lock_3_">
	<g>
		<path style="fill-rule:evenodd;clip-rule:evenodd;fill:#ED7161;" d="M20,15.999V14c0-2.21-1.791-4.001-4-4.001S12,11.79,12,14
			v1.999c-0.553,0-1,0.448-1,1.001v3.999C11,21.552,11.447,22,12,22h8c0.552,0,1-0.448,1-1.001V17
			C21,16.447,20.552,15.999,20,15.999z M16,19.999c-0.553,0-1-0.447-1-1C15,18.447,15.447,18,16,18c0.552,0,1,0.447,1,0.999
			C17,19.552,16.552,19.999,16,19.999z M18,15.999h-4V14c0-1.105,0.896-2.001,2-2.001s2,0.896,2,2.001V15.999z"/>
	</g>
</g>
<g>
</g>
<g>
</g>
<g>
</g>
<g>
</g>
<g>
</g>
<g>
</g>
<g>
</g>
<g>
</g>
<g>
</g>
<g>
</g>
<g>
</g>
<g>
</g>
<g>
</g>
<g>
</g>
<g>
</g>
</svg>
