<?xml version="1.0" encoding="iso-8859-1"?>
<!-- Generator: Adobe Illustrator 16.0.0, SVG Export Plug-In . SVG Version: 6.00 Build 0)  -->
<!DOCTYPE svg PUBLIC "-//W3C//DTD SVG 1.1//EN" "http://www.w3.org/Graphics/SVG/1.1/DTD/svg11.dtd">
<svg version="1.1" id="Layer_1" xmlns="http://www.w3.org/2000/svg" xmlns:xlink="http://www.w3.org/1999/xlink" x="0px" y="0px"
	 width="32px" height="32px" viewBox="0 0 32 32" style="enable-background:new 0 0 32 32;" xml:space="preserve">
<g id="Elipse_68_">
	<g>
		<path style="fill-rule:evenodd;clip-rule:evenodd;fill:#CCCCCC;" d="M16,0C7.164,0,0,7.163,0,16s7.164,16,16,16s16-7.163,16-16
			S24.836,0,16,0z M16,30C8.268,30,2,23.731,2,16C2,8.268,8.268,2,16,2s14,6.268,14,14C30,23.731,23.732,30,16,30z"/>
	</g>
</g>
<g id="Magnifier">
	<g>
		<path style="fill-rule:evenodd;clip-rule:evenodd;fill:#48A0DC;" d="M22.667,21.065l-2.704-2.703
			c0.651-0.96,1.033-2.118,1.033-3.365c0-3.313-2.686-5.998-5.998-5.998S9,11.685,9,14.997s2.685,5.998,5.998,5.998
			c1.248,0,2.406-0.381,3.365-1.033l2.704,2.703c0.442,0.442,1.158,0.442,1.6,0C23.108,22.224,23.108,21.508,22.667,21.065z
			 M14.998,18.999c-2.21,0-4.002-1.792-4.002-4.002c0-2.211,1.792-4.003,4.002-4.003S19,12.786,19,14.997
			C19,17.207,17.208,18.999,14.998,18.999z"/>
	</g>
</g>
<g>
</g>
<g>
</g>
<g>
</g>
<g>
</g>
<g>
</g>
<g>
</g>
<g>
</g>
<g>
</g>
<g>
</g>
<g>
</g>
<g>
</g>
<g>
</g>
<g>
</g>
<g>
</g>
<g>
</g>
</svg>
