<?xml version="1.0" encoding="iso-8859-1"?>
<!-- Generator: Adobe Illustrator 16.0.0, SVG Export Plug-In . SVG Version: 6.00 Build 0)  -->
<!DOCTYPE svg PUBLIC "-//W3C//DTD SVG 1.1//EN" "http://www.w3.org/Graphics/SVG/1.1/DTD/svg11.dtd">
<svg version="1.1" id="Layer_1" xmlns="http://www.w3.org/2000/svg" xmlns:xlink="http://www.w3.org/1999/xlink" x="0px" y="0px"
	 width="32px" height="32px" viewBox="0 0 32 32" style="enable-background:new 0 0 32 32;" xml:space="preserve">
<g id="Elipse_13_">
	<g>
		<path style="fill-rule:evenodd;clip-rule:evenodd;fill:#CCCCCC;" d="M16,0C7.163,0,0,7.164,0,16c0,8.837,7.163,16,16,16
			s16-7.163,16-16C32,7.164,24.837,0,16,0z M16,30C8.268,30,2,23.732,2,16C2,8.269,8.268,2.001,16,2.001S30,8.269,30,16
			C30,23.732,23.732,30,16,30z"/>
	</g>
</g>
<g id="Info">
	<g>
		<path style="fill-rule:evenodd;clip-rule:evenodd;fill:#48A0DC;" d="M12.001,13.001h9c0.552,0,1-0.447,1-1s-0.448-1-1-1h-9
			c-0.552,0-1.001,0.447-1.001,1S11.449,13.001,12.001,13.001z M21.001,15.001h-9c-0.552,0-1.001,0.447-1.001,1s0.449,1,1.001,1h9
			c0.552,0,1-0.447,1-1S21.553,15.001,21.001,15.001z M21.001,19.001h-9c-0.552,0-1.001,0.447-1.001,1s0.449,1,1.001,1h9
			c0.552,0,1-0.447,1-1S21.553,19.001,21.001,19.001z"/>
	</g>
</g>
<g>
</g>
<g>
</g>
<g>
</g>
<g>
</g>
<g>
</g>
<g>
</g>
<g>
</g>
<g>
</g>
<g>
</g>
<g>
</g>
<g>
</g>
<g>
</g>
<g>
</g>
<g>
</g>
<g>
</g>
</svg>
