<?xml version="1.0" encoding="iso-8859-1"?>
<!-- Generator: Adobe Illustrator 16.0.0, SVG Export Plug-In . SVG Version: 6.00 Build 0)  -->
<!DOCTYPE svg PUBLIC "-//W3C//DTD SVG 1.1//EN" "http://www.w3.org/Graphics/SVG/1.1/DTD/svg11.dtd">
<svg version="1.1" id="Layer_1" xmlns="http://www.w3.org/2000/svg" xmlns:xlink="http://www.w3.org/1999/xlink" x="0px" y="0px"
	 width="32px" height="32px" viewBox="0 0 32 32" style="enable-background:new 0 0 32 32;" xml:space="preserve">
<g id="Elipse_15_">
	<g>
		<path style="fill-rule:evenodd;clip-rule:evenodd;fill:#CCCCCC;" d="M16,0C7.164,0,0,7.164,0,16c0,8.837,7.164,16,16,16
			s16-7.163,16-16C32,7.164,24.836,0,16,0z M16,30C8.268,30,2,23.732,2,16C2,8.269,8.268,2.001,16,2.001S30,8.269,30,16
			C30,23.732,23.732,30,16,30z"/>
	</g>
</g>
<g id="Music">
	<g>
		<path style="fill-rule:evenodd;clip-rule:evenodd;fill:#ED7161;" d="M21.1,10.31l-7.2-1.297C13.403,8.923,13,9.262,13,9.77V11
			v0.609v5.431C12.838,17.014,12.671,17,12.5,17c-1.381,0-2.5,0.896-2.5,2s1.119,2,2.5,2c1.38,0,2.5-0.896,2.5-2v-6.111l5,0.9v5.251
			C19.838,19.014,19.671,19,19.5,19c-1.381,0-2.5,0.896-2.5,2s1.119,2,2.5,2c1.38,0,2.5-0.896,2.5-2v-7.771V13v-1.609
			C22,10.883,21.597,10.399,21.1,10.31z"/>
	</g>
</g>
<g>
</g>
<g>
</g>
<g>
</g>
<g>
</g>
<g>
</g>
<g>
</g>
<g>
</g>
<g>
</g>
<g>
</g>
<g>
</g>
<g>
</g>
<g>
</g>
<g>
</g>
<g>
</g>
<g>
</g>
</svg>
