<?xml version="1.0" encoding="iso-8859-1"?>
<!-- Generator: Adobe Illustrator 16.0.0, SVG Export Plug-In . SVG Version: 6.00 Build 0)  -->
<!DOCTYPE svg PUBLIC "-//W3C//DTD SVG 1.1//EN" "http://www.w3.org/Graphics/SVG/1.1/DTD/svg11.dtd">
<svg version="1.1" id="Layer_1" xmlns="http://www.w3.org/2000/svg" xmlns:xlink="http://www.w3.org/1999/xlink" x="0px" y="0px"
	 width="32px" height="32px" viewBox="0 0 32 32" style="enable-background:new 0 0 32 32;" xml:space="preserve">
<g id="Elipse_16_">
	<g>
		<path style="fill-rule:evenodd;clip-rule:evenodd;fill:#CCCCCC;" d="M16,0C7.163,0,0,7.164,0,16.001C0,24.837,7.163,32,16,32
			c8.836,0,16-7.163,16-15.999C32,7.164,24.836,0,16,0z M16,30C8.268,30,2,23.732,2,16.001c0-7.732,6.268-14,14-14s14,6.268,14,14
			C30,23.732,23.732,30,16,30z"/>
	</g>
</g>
<g id="_x30_">
	<g>
		<path style="fill:#88C057;" d="M19.012,11.638c-0.666-1.088-1.67-1.632-3.012-1.632s-2.346,0.544-3.012,1.632
			c-0.666,1.089-1,2.542-1,4.359c0,1.818,0.333,3.271,1,4.36c0.666,1.088,1.67,1.632,3.012,1.632s2.346-0.544,3.012-1.632
			c0.667-1.089,1-2.542,1-4.36C20.011,14.18,19.678,12.727,19.012,11.638z M17.521,18.894c-0.325,0.732-0.832,1.1-1.521,1.1
			s-1.196-0.367-1.521-1.1c-0.325-0.733-0.487-1.701-0.487-2.904c0-1.202,0.163-2.17,0.487-2.902c0.325-0.733,0.832-1.1,1.521-1.1
			s1.196,0.366,1.521,1.1c0.325,0.732,0.487,1.7,0.487,2.902C18.008,17.192,17.846,18.16,17.521,18.894z"/>
	</g>
</g>
<g>
</g>
<g>
</g>
<g>
</g>
<g>
</g>
<g>
</g>
<g>
</g>
<g>
</g>
<g>
</g>
<g>
</g>
<g>
</g>
<g>
</g>
<g>
</g>
<g>
</g>
<g>
</g>
<g>
</g>
</svg>
