<?xml version="1.0" encoding="iso-8859-1"?>
<!-- Generator: Adobe Illustrator 16.0.0, SVG Export Plug-In . SVG Version: 6.00 Build 0)  -->
<!DOCTYPE svg PUBLIC "-//W3C//DTD SVG 1.1//EN" "http://www.w3.org/Graphics/SVG/1.1/DTD/svg11.dtd">
<svg version="1.1" id="Layer_1" xmlns="http://www.w3.org/2000/svg" xmlns:xlink="http://www.w3.org/1999/xlink" x="0px" y="0px"
	 width="32px" height="32px" viewBox="0 0 32 32" style="enable-background:new 0 0 32 32;" xml:space="preserve">
<g id="Elipse_24_">
	<g>
		<path style="fill-rule:evenodd;clip-rule:evenodd;fill:#CCCCCC;" d="M16,0C7.163,0,0,7.163,0,16s7.163,16,16,16
			c8.836,0,16-7.163,16-16S24.836,0,16,0z M16,30C8.268,30,2,23.732,2,16C2,8.269,8.268,2.001,16,2.001S30,8.269,30,16
			C30,23.732,23.732,30,16,30z"/>
	</g>
</g>
<g id="_x32_">
	<g>
		<path style="fill-rule:evenodd;clip-rule:evenodd;fill:#88C057;" d="M19,20.001h-3.555l2.955-2.8l-0.009-0.011
			C19.362,16.46,20,15.31,20,14.001c0-2.209-1.791-4-4-4s-4,1.791-4,4c0,0.553,0.448,1,1,1s1-0.447,1-1c0-1.104,0.896-2,2-2
			s2,0.896,2,2c0,0.539-0.369,1.204-0.923,1.615l0.003,0.005l-4.798,4.733c-0.177,0.177-0.264,0.407-0.273,0.639L12,21.001
			c0,0.006,0.003,0.01,0.003,0.016c-0.004,0.251,0.086,0.504,0.278,0.695c0.188,0.188,0.434,0.281,0.68,0.281
			c0.014,0,0.025,0.008,0.039,0.008h6c0.552,0,1-0.447,1-1S19.552,20.001,19,20.001z"/>
	</g>
</g>
<g>
</g>
<g>
</g>
<g>
</g>
<g>
</g>
<g>
</g>
<g>
</g>
<g>
</g>
<g>
</g>
<g>
</g>
<g>
</g>
<g>
</g>
<g>
</g>
<g>
</g>
<g>
</g>
<g>
</g>
</svg>
