<?xml version="1.0" encoding="iso-8859-1"?>
<!-- Generator: Adobe Illustrator 16.0.0, SVG Export Plug-In . SVG Version: 6.00 Build 0)  -->
<!DOCTYPE svg PUBLIC "-//W3C//DTD SVG 1.1//EN" "http://www.w3.org/Graphics/SVG/1.1/DTD/svg11.dtd">
<svg version="1.1" id="Layer_1" xmlns="http://www.w3.org/2000/svg" xmlns:xlink="http://www.w3.org/1999/xlink" x="0px" y="0px"
	 width="32px" height="32px" viewBox="0 0 32 32" style="enable-background:new 0 0 32 32;" xml:space="preserve">
<g id="Elipse_23_">
	<g>
		<path style="fill-rule:evenodd;clip-rule:evenodd;fill:#CCCCCC;" d="M16,0C7.164,0,0,7.163,0,16s7.164,16,16,16s16-7.163,16-16
			S24.836,0,16,0z M16,30C8.268,30,2,23.732,2,16C2,8.269,8.268,2.001,16,2.001S30,8.269,30,16C30,23.732,23.732,30,16,30z"/>
	</g>
</g>
<g id="_x33_">
	<g>
		<path style="fill-rule:evenodd;clip-rule:evenodd;fill:#88C057;" d="M20,11.001c0-0.006-0.003-0.01-0.003-0.016
			c0.004-0.251-0.086-0.504-0.278-0.695c-0.188-0.188-0.434-0.281-0.679-0.281c-0.014,0-0.025-0.008-0.04-0.008h-6
			c-0.552,0-1,0.447-1,1s0.448,1,1,1h3.65l-2.362,2.361c-0.375,0.375-0.375,0.983,0,1.358c0.197,0.196,0.457,0.283,0.715,0.273
			L15,16.001h1c1.104,0,2,0.896,2,2s-0.896,2-2,2s-2-0.896-2-2c0-0.553-0.448-1-1-1s-1,0.447-1,1c0,2.209,1.791,4,4,4s4-1.791,4-4
			c0-1.799-1.195-3.303-2.829-3.806l2.386-2.386C19.818,11.63,20,11.343,20,11.001z"/>
	</g>
</g>
<g>
</g>
<g>
</g>
<g>
</g>
<g>
</g>
<g>
</g>
<g>
</g>
<g>
</g>
<g>
</g>
<g>
</g>
<g>
</g>
<g>
</g>
<g>
</g>
<g>
</g>
<g>
</g>
<g>
</g>
</svg>
