<?xml version="1.0" encoding="iso-8859-1"?>
<!-- Generator: Adobe Illustrator 16.0.0, SVG Export Plug-In . SVG Version: 6.00 Build 0)  -->
<!DOCTYPE svg PUBLIC "-//W3C//DTD SVG 1.1//EN" "http://www.w3.org/Graphics/SVG/1.1/DTD/svg11.dtd">
<svg version="1.1" id="Layer_1" xmlns="http://www.w3.org/2000/svg" xmlns:xlink="http://www.w3.org/1999/xlink" x="0px" y="0px"
	 width="32px" height="32px" viewBox="0 0 32 32" style="enable-background:new 0 0 32 32;" xml:space="preserve">
<g id="Elipse_22_">
	<g>
		<path style="fill-rule:evenodd;clip-rule:evenodd;fill:#CCCCCC;" d="M16,0C7.163,0,0,7.163,0,16s7.163,16,16,16
			c8.836,0,16-7.163,16-16S24.836,0,16,0z M16,30C8.268,30,2,23.732,2,16C2,8.269,8.268,2.001,16,2.001c7.731,0,14,6.268,14,13.999
			C30,23.732,23.731,30,16,30z"/>
	</g>
</g>
<g id="_x34_">
	<g>
		<path style="fill-rule:evenodd;clip-rule:evenodd;fill:#88C057;" d="M18,17.001v-1c0-0.553-0.447-1-1-1s-1,0.447-1,1v1h-2.278
			l3.145-5.484c0.276-0.482,0.112-1.098-0.366-1.376s-1.09-0.113-1.366,0.368l-4,6.977c-0.016,0.027-0.016,0.059-0.029,0.088
			c-0.021,0.044-0.031,0.091-0.046,0.138c-0.022,0.077-0.042,0.151-0.046,0.229C11.011,17.961,11,17.979,11,18.001
			c0,0.045,0.02,0.082,0.025,0.125c0.009,0.063,0.017,0.122,0.037,0.182c0.024,0.075,0.06,0.141,0.1,0.207
			c0.025,0.04,0.048,0.079,0.079,0.116c0.057,0.069,0.124,0.123,0.197,0.175c0.023,0.017,0.037,0.041,0.063,0.056
			c0.013,0.008,0.027,0.007,0.04,0.014c0.076,0.04,0.157,0.063,0.243,0.082c0.048,0.011,0.093,0.024,0.141,0.028
			c0.026,0.002,0.049,0.016,0.076,0.016h4v2c0,0.553,0.447,1,1,1s1-0.447,1-1v-2c0.553,0,1-0.447,1-1S18.553,17.001,18,17.001z"/>
	</g>
</g>
<g>
</g>
<g>
</g>
<g>
</g>
<g>
</g>
<g>
</g>
<g>
</g>
<g>
</g>
<g>
</g>
<g>
</g>
<g>
</g>
<g>
</g>
<g>
</g>
<g>
</g>
<g>
</g>
<g>
</g>
</svg>
