<?xml version="1.0" encoding="iso-8859-1"?>
<!-- Generator: Adobe Illustrator 16.0.0, SVG Export Plug-In . SVG Version: 6.00 Build 0)  -->
<!DOCTYPE svg PUBLIC "-//W3C//DTD SVG 1.1//EN" "http://www.w3.org/Graphics/SVG/1.1/DTD/svg11.dtd">
<svg version="1.1" id="Layer_1" xmlns="http://www.w3.org/2000/svg" xmlns:xlink="http://www.w3.org/1999/xlink" x="0px" y="0px"
	 width="32px" height="32px" viewBox="0 0 32 32" style="enable-background:new 0 0 32 32;" xml:space="preserve">
<g id="Elipse_21_">
	<g>
		<path style="fill-rule:evenodd;clip-rule:evenodd;fill:#CCCCCC;" d="M16,0C7.163,0,0,7.163,0,16s7.163,16,16,16
			c8.836,0,16-7.163,16-16S24.836,0,16,0z M16,30C8.268,30,2,23.732,2,16C2,8.269,8.268,2.001,16,2.001c7.731,0,14,6.268,14,13.999
			C30,23.732,23.731,30,16,30z"/>
	</g>
</g>
<g id="_x35_">
	<g>
		<path style="fill-rule:evenodd;clip-rule:evenodd;fill:#88C057;" d="M16,14.001h-2v-2h4c0.553,0,1-0.448,1-1c0-0.553-0.447-1-1-1
			h-5c-0.553,0-1,0.447-1,1v0.208c0,0.004-0.002,0.007-0.002,0.01v3.807c0,0.403,0.252,0.748,0.61,0.896
			c0.12,0.051,0.253,0.08,0.392,0.08h2h1c1.104,0,2,0.896,2,2s-0.896,2-2,2s-2-0.896-2-2c0-0.553-0.447-1-1-1s-1,0.447-1,1
			c0,2.209,1.791,4,4,4s4-1.791,4-4S18.209,14.001,16,14.001z"/>
	</g>
</g>
<g>
</g>
<g>
</g>
<g>
</g>
<g>
</g>
<g>
</g>
<g>
</g>
<g>
</g>
<g>
</g>
<g>
</g>
<g>
</g>
<g>
</g>
<g>
</g>
<g>
</g>
<g>
</g>
<g>
</g>
</svg>
