<?xml version="1.0" encoding="iso-8859-1"?>
<!-- Generator: Adobe Illustrator 16.0.0, SVG Export Plug-In . SVG Version: 6.00 Build 0)  -->
<!DOCTYPE svg PUBLIC "-//W3C//DTD SVG 1.1//EN" "http://www.w3.org/Graphics/SVG/1.1/DTD/svg11.dtd">
<svg version="1.1" id="Layer_1" xmlns="http://www.w3.org/2000/svg" xmlns:xlink="http://www.w3.org/1999/xlink" x="0px" y="0px"
	 width="32px" height="32px" viewBox="0 0 32 32" style="enable-background:new 0 0 32 32;" xml:space="preserve">
<g id="Elipse_20_">
	<g>
		<path style="fill-rule:evenodd;clip-rule:evenodd;fill:#CCCCCC;" d="M16,0C7.163,0,0,7.163,0,16s7.163,16,16,16s16-7.163,16-16
			S24.837,0,16,0z M16,30C8.268,30,2,23.732,2,16C2,8.269,8.268,2.001,16,2.001c7.731,0,14,6.268,14,13.999
			C30,23.732,23.731,30,16,30z"/>
	</g>
</g>
<g id="_x36_">
	<g>
		<path style="fill-rule:evenodd;clip-rule:evenodd;fill:#88C057;" d="M16,14.001c-0.44,0-0.856,0.089-1.253,0.221
			c0.51-1.047,1.221-1.775,1.96-2.514c0.391-0.391,0.391-1.023,0-1.414s-1.023-0.391-1.414,0C13.825,11.761,12,13.587,12,18.001
			c0,2.206,1.794,4,4,4s4-1.794,4-4S18.206,14.001,16,14.001z M16,20.001c-1.104,0-2-0.897-2-2c0-1.104,0.896-2,2-2
			c1.103,0,2,0.896,2,2C18,19.104,17.103,20.001,16,20.001z"/>
	</g>
</g>
<g>
</g>
<g>
</g>
<g>
</g>
<g>
</g>
<g>
</g>
<g>
</g>
<g>
</g>
<g>
</g>
<g>
</g>
<g>
</g>
<g>
</g>
<g>
</g>
<g>
</g>
<g>
</g>
<g>
</g>
</svg>
