<?xml version="1.0" encoding="iso-8859-1"?>
<!-- Generator: Adobe Illustrator 16.0.0, SVG Export Plug-In . SVG Version: 6.00 Build 0)  -->
<!DOCTYPE svg PUBLIC "-//W3C//DTD SVG 1.1//EN" "http://www.w3.org/Graphics/SVG/1.1/DTD/svg11.dtd">
<svg version="1.1" id="Layer_1" xmlns="http://www.w3.org/2000/svg" xmlns:xlink="http://www.w3.org/1999/xlink" x="0px" y="0px"
	 width="32px" height="32px" viewBox="0 0 32 32" style="enable-background:new 0 0 32 32;" xml:space="preserve">
<g id="Elipse_19_">
	<g>
		<path style="fill-rule:evenodd;clip-rule:evenodd;fill:#CCCCCC;" d="M16,0C7.163,0,0,7.163,0,16s7.163,16,16,16
			c8.836,0,16-7.163,16-16S24.836,0,16,0z M16,30C8.268,30,2,23.732,2,16C2,8.269,8.268,2.001,16,2.001c7.731,0,14,6.268,14,13.999
			C30,23.732,23.731,30,16,30z"/>
	</g>
</g>
<g id="_x37_">
	<g>
		<path style="fill-rule:evenodd;clip-rule:evenodd;fill:#88C057;" d="M19.991,11.059C19.993,11.039,20,11.021,20,11.001
			c0-0.035-0.017-0.065-0.021-0.101c-0.006-0.094-0.021-0.183-0.055-0.271c-0.007-0.018-0.017-0.033-0.025-0.051
			c-0.045-0.101-0.104-0.19-0.183-0.271c-0.013-0.014-0.028-0.023-0.042-0.035c-0.056-0.053-0.104-0.111-0.175-0.15
			c-0.029-0.017-0.062-0.017-0.092-0.029c-0.023-0.011-0.048-0.016-0.072-0.024c-0.103-0.036-0.204-0.06-0.311-0.063
			c-0.009,0-0.017-0.005-0.025-0.005h-6c-0.553,0-1,0.447-1,1s0.447,1,1,1h4.529l-3.396,8.554c-0.276,0.464-0.112,1.057,0.366,1.325
			c0.479,0.268,1.09,0.108,1.366-0.355l4-10.077c0.017-0.028,0.018-0.06,0.031-0.089c0.044-0.078,0.071-0.162,0.086-0.248
			C19.986,11.093,19.989,11.076,19.991,11.059z"/>
	</g>
</g>
<g>
</g>
<g>
</g>
<g>
</g>
<g>
</g>
<g>
</g>
<g>
</g>
<g>
</g>
<g>
</g>
<g>
</g>
<g>
</g>
<g>
</g>
<g>
</g>
<g>
</g>
<g>
</g>
<g>
</g>
</svg>
