<?xml version="1.0" encoding="iso-8859-1"?>
<!-- Generator: Adobe Illustrator 16.0.0, SVG Export Plug-In . SVG Version: 6.00 Build 0)  -->
<!DOCTYPE svg PUBLIC "-//W3C//DTD SVG 1.1//EN" "http://www.w3.org/Graphics/SVG/1.1/DTD/svg11.dtd">
<svg version="1.1" id="Layer_1" xmlns="http://www.w3.org/2000/svg" xmlns:xlink="http://www.w3.org/1999/xlink" x="0px" y="0px"
	 width="32px" height="32px" viewBox="0 0 32 32" style="enable-background:new 0 0 32 32;" xml:space="preserve">
<g id="Elipse_18_">
	<g>
		<path style="fill-rule:evenodd;clip-rule:evenodd;fill:#CCCCCC;" d="M16,0C7.163,0,0,7.163,0,16s7.163,16,16,16
			c8.836,0,16-7.163,16-16S24.836,0,16,0z M16,30C8.268,30,2,23.732,2,16C2,8.269,8.268,2.001,16,2.001c7.731,0,14,6.268,14,13.999
			C30,23.732,23.731,30,16,30z"/>
	</g>
</g>
<g id="_x38_">
	<g>
		<path style="fill-rule:evenodd;clip-rule:evenodd;fill:#88C057;" d="M18.229,14.975c0.466-0.529,0.758-1.216,0.758-1.978
			c0-1.654-1.337-2.996-2.986-2.996s-2.986,1.342-2.986,2.996c0,0.762,0.292,1.448,0.758,1.978C12.703,15.976,12,17.57,12,18.935
			c0,2.178,1.791,3.066,4,3.066s4-0.889,4-3.066C20,17.57,19.297,15.976,18.229,14.975z M16,11.999c0.55,0,0.996,0.447,0.996,0.999
			S16.55,13.997,16,13.997s-0.996-0.447-0.996-0.999S15.45,11.999,16,11.999z M16,19.998c-1.106,0-2.003-0.119-2.003-1.502
			c0-1.38,0.895-2.499,1.999-2.502c0.001,0,0.002,0,0.004,0s0.003,0,0.004,0c1.104,0.003,1.999,1.122,1.999,2.502
			C18.003,19.879,17.106,19.998,16,19.998z"/>
	</g>
</g>
<g>
</g>
<g>
</g>
<g>
</g>
<g>
</g>
<g>
</g>
<g>
</g>
<g>
</g>
<g>
</g>
<g>
</g>
<g>
</g>
<g>
</g>
<g>
</g>
<g>
</g>
<g>
</g>
<g>
</g>
</svg>
