<?xml version="1.0" encoding="iso-8859-1"?>
<!-- Generator: Adobe Illustrator 16.0.0, SVG Export Plug-In . SVG Version: 6.00 Build 0)  -->
<!DOCTYPE svg PUBLIC "-//W3C//DTD SVG 1.1//EN" "http://www.w3.org/Graphics/SVG/1.1/DTD/svg11.dtd">
<svg version="1.1" id="Layer_1" xmlns="http://www.w3.org/2000/svg" xmlns:xlink="http://www.w3.org/1999/xlink" x="0px" y="0px"
	 width="32px" height="32px" viewBox="0 0 32 32" style="enable-background:new 0 0 32 32;" xml:space="preserve">
<g id="Elipse_17_">
	<g>
		<path style="fill-rule:evenodd;clip-rule:evenodd;fill:#CCCCCC;" d="M16,0C7.164,0,0,7.164,0,16.001C0,24.837,7.164,32,16,32
			s16-7.163,16-15.999C32,7.164,24.836,0,16,0z M16,30C8.268,30,2,23.732,2,16.001c0-7.732,6.268-14,14-14s14,6.268,14,14
			C30,23.732,23.732,30,16,30z"/>
	</g>
</g>
<g id="_x39_">
	<g>
		<path style="fill-rule:evenodd;clip-rule:evenodd;fill:#88C057;" d="M16,10.001c-2.206,0-4,1.794-4,4c0,2.205,1.794,4,4,4
			c0.44,0,0.856-0.089,1.253-0.221c-0.51,1.047-1.221,1.774-1.96,2.514c-0.391,0.391-0.391,1.023,0,1.414s1.023,0.391,1.414,0
			C18.174,20.241,20,18.415,20,14.001C20,11.795,18.205,10.001,16,10.001z M16,16.001c-1.103,0-2-0.897-2-2s0.897-2,2-2
			c1.104,0,2,0.897,2,2S17.104,16.001,16,16.001z"/>
	</g>
</g>
<g>
</g>
<g>
</g>
<g>
</g>
<g>
</g>
<g>
</g>
<g>
</g>
<g>
</g>
<g>
</g>
<g>
</g>
<g>
</g>
<g>
</g>
<g>
</g>
<g>
</g>
<g>
</g>
<g>
</g>
</svg>
