<?xml version="1.0" encoding="iso-8859-1"?>
<!-- Generator: Adobe Illustrator 16.0.0, SVG Export Plug-In . SVG Version: 6.00 Build 0)  -->
<!DOCTYPE svg PUBLIC "-//W3C//DTD SVG 1.1//EN" "http://www.w3.org/Graphics/SVG/1.1/DTD/svg11.dtd">
<svg version="1.1" id="Layer_1" xmlns="http://www.w3.org/2000/svg" xmlns:xlink="http://www.w3.org/1999/xlink" x="0px" y="0px"
	 width="32px" height="32px" viewBox="0 0 32 32" style="enable-background:new 0 0 32 32;" xml:space="preserve">
<g id="Elipse_49_">
	<g>
		<path style="fill-rule:evenodd;clip-rule:evenodd;fill:#CCCCCC;" d="M16,0C7.164,0,0,7.163,0,16c0,8.836,7.164,16,16,16
			s16-7.164,16-16C32,7.163,24.836,0,16,0z M16,30C8.268,30,2,23.732,2,16C2,8.269,8.268,2,16,2s14,6.269,14,14
			C30,23.732,23.732,30,16,30z"/>
	</g>
</g>
<g id="Ok_1_">
	<g>
		<path style="fill-rule:evenodd;clip-rule:evenodd;fill:#88C057;" d="M20.696,13.283c-0.394-0.395-1.033-0.395-1.427,0
			l-4.261,4.261l-2.254-2.259c-0.403-0.404-1.057-0.404-1.46,0c-0.403,0.404-0.403,1.059,0,1.463l2.92,2.926
			c0.106,0.106,0.231,0.182,0.364,0.231c0.371,0.167,0.819,0.104,1.124-0.201l4.994-4.994C21.09,14.316,21.09,13.677,20.696,13.283z
			"/>
	</g>
</g>
<g>
</g>
<g>
</g>
<g>
</g>
<g>
</g>
<g>
</g>
<g>
</g>
<g>
</g>
<g>
</g>
<g>
</g>
<g>
</g>
<g>
</g>
<g>
</g>
<g>
</g>
<g>
</g>
<g>
</g>
</svg>
