<?xml version="1.0" encoding="iso-8859-1"?>
<!-- Generator: Adobe Illustrator 16.0.0, SVG Export Plug-In . SVG Version: 6.00 Build 0)  -->
<!DOCTYPE svg PUBLIC "-//W3C//DTD SVG 1.1//EN" "http://www.w3.org/Graphics/SVG/1.1/DTD/svg11.dtd">
<svg version="1.1" id="Layer_1" xmlns="http://www.w3.org/2000/svg" xmlns:xlink="http://www.w3.org/1999/xlink" x="0px" y="0px"
	 width="32px" height="32px" viewBox="0 0 32 32" style="enable-background:new 0 0 32 32;" xml:space="preserve">
<g id="Elipse_85_">
	<g>
		<path style="fill-rule:evenodd;clip-rule:evenodd;fill:#CCCCCC;" d="M16,0C7.164,0,0,7.163,0,15.999C0,24.836,7.164,32,16,32
			s16-7.164,16-16.001C32,7.163,24.836,0,16,0z M16,30C8.268,30,2,23.731,2,15.999C2,8.268,8.268,2,16,2s14,6.268,14,13.999
			C30,23.731,23.732,30,16,30z"/>
	</g>
</g>
<g id="On">
	<g>
		<path style="fill-rule:evenodd;clip-rule:evenodd;fill:#88C057;" d="M18,10.349v2.206c1.19,0.693,2,1.969,2,3.445
			c0,2.21-1.791,4-4,4s-4-1.79-4-4c0-1.476,0.81-2.752,2-3.445v-2.206c-2.329,0.824-4,3.039-4,5.65C10,19.313,12.687,22,16,22
			s6-2.687,6-6.001C22,13.388,20.329,11.173,18,10.349z M16,14c0.552,0,1-0.448,1-1v-3c0-0.553-0.448-1-1-1s-1,0.447-1,1v3
			C15,13.552,15.448,14,16,14z"/>
	</g>
</g>
<g>
</g>
<g>
</g>
<g>
</g>
<g>
</g>
<g>
</g>
<g>
</g>
<g>
</g>
<g>
</g>
<g>
</g>
<g>
</g>
<g>
</g>
<g>
</g>
<g>
</g>
<g>
</g>
<g>
</g>
</svg>
