<?xml version="1.0" encoding="iso-8859-1"?>
<!-- Generator: Adobe Illustrator 16.0.0, SVG Export Plug-In . SVG Version: 6.00 Build 0)  -->
<!DOCTYPE svg PUBLIC "-//W3C//DTD SVG 1.1//EN" "http://www.w3.org/Graphics/SVG/1.1/DTD/svg11.dtd">
<svg version="1.1" id="Layer_1" xmlns="http://www.w3.org/2000/svg" xmlns:xlink="http://www.w3.org/1999/xlink" x="0px" y="0px"
	 width="32px" height="32px" viewBox="0 0 32 32" style="enable-background:new 0 0 32 32;" xml:space="preserve">
<g id="Elipse_92_">
	<g>
		<path style="fill-rule:evenodd;clip-rule:evenodd;fill:#CCCCCC;" d="M16,0C7.164,0,0,7.164,0,16c0,8.837,7.164,16,16,16
			s16-7.163,16-16C32,7.164,24.836,0,16,0z M16,30C8.268,30,2,23.731,2,16C2,8.268,8.268,2,16,2s14,6.268,14,14
			C30,23.731,23.732,30,16,30z"/>
	</g>
</g>
<g id="Pause">
	<g>
		<path style="fill-rule:evenodd;clip-rule:evenodd;fill:#48A0DC;" d="M14,10.999c-0.552,0-1,0.448-1,1.001v8c0,0.552,0.448,1,1,1
			s1-0.448,1-1v-8C15,11.447,14.552,10.999,14,10.999z M18,10.999c-0.552,0-1,0.448-1,1.001v8c0,0.552,0.448,1,1,1s1-0.448,1-1v-8
			C19,11.447,18.552,10.999,18,10.999z"/>
	</g>
</g>
<g>
</g>
<g>
</g>
<g>
</g>
<g>
</g>
<g>
</g>
<g>
</g>
<g>
</g>
<g>
</g>
<g>
</g>
<g>
</g>
<g>
</g>
<g>
</g>
<g>
</g>
<g>
</g>
<g>
</g>
</svg>
