<?xml version="1.0" encoding="iso-8859-1"?>
<!-- Generator: Adobe Illustrator 16.0.0, SVG Export Plug-In . SVG Version: 6.00 Build 0)  -->
<!DOCTYPE svg PUBLIC "-//W3C//DTD SVG 1.1//EN" "http://www.w3.org/Graphics/SVG/1.1/DTD/svg11.dtd">
<svg version="1.1" id="Layer_1" xmlns="http://www.w3.org/2000/svg" xmlns:xlink="http://www.w3.org/1999/xlink" x="0px" y="0px"
	 width="32px" height="32px" viewBox="0 0 32 32" style="enable-background:new 0 0 32 32;" xml:space="preserve">
<g id="Elipse_93_">
	<g>
		<path style="fill-rule:evenodd;clip-rule:evenodd;fill:#CCCCCC;" d="M16,0C7.164,0,0,7.164,0,16c0,8.837,7.164,16,16,16
			s16-7.163,16-16C32,7.164,24.836,0,16,0z M16,30C8.268,30,2,23.731,2,16C2,8.268,8.268,2,16,2s14,6.268,14,14
			C30,23.731,23.732,30,16,30z"/>
	</g>
</g>
<g id="Play">
	<g>
		<path style="fill:#48A0DC;" d="M20.986,15.933c0.006-0.385-0.158-0.763-0.482-0.968l-5.989-3.802
			c-0.153-0.095-0.322-0.164-0.515-0.164c-0.552,0-1,0.448-1,1.001v8c0,0.552,0.448,1,1,1c0.186,0,0.35-0.064,0.499-0.153
			l6.005-3.812c0.324-0.206,0.488-0.583,0.482-0.968c0.003-0.022,0.002-0.045,0.004-0.067
			C20.988,15.977,20.989,15.955,20.986,15.933z"/>
	</g>
</g>
<g>
</g>
<g>
</g>
<g>
</g>
<g>
</g>
<g>
</g>
<g>
</g>
<g>
</g>
<g>
</g>
<g>
</g>
<g>
</g>
<g>
</g>
<g>
</g>
<g>
</g>
<g>
</g>
<g>
</g>
</svg>
