<?xml version="1.0" encoding="iso-8859-1"?>
<!-- Generator: Adobe Illustrator 16.0.0, SVG Export Plug-In . SVG Version: 6.00 Build 0)  -->
<!DOCTYPE svg PUBLIC "-//W3C//DTD SVG 1.1//EN" "http://www.w3.org/Graphics/SVG/1.1/DTD/svg11.dtd">
<svg version="1.1" id="Layer_1" xmlns="http://www.w3.org/2000/svg" xmlns:xlink="http://www.w3.org/1999/xlink" x="0px" y="0px"
	 width="32px" height="32px" viewBox="0 0 32 32" style="enable-background:new 0 0 32 32;" xml:space="preserve">
<g id="Elipse_88_">
	<g>
		<path style="fill-rule:evenodd;clip-rule:evenodd;fill:#CCCCCC;" d="M16,0C7.163,0,0,7.164,0,16c0,8.837,7.163,16,16,16
			s16-7.163,16-16C32,7.164,24.837,0,16,0z M16,30C8.268,30,2,23.731,2,16C2,8.268,8.268,2,16,2s14,6.268,14,14
			C30,23.731,23.732,30,16,30z"/>
	</g>
</g>
<g id="Previous">
	<g>
		<path style="fill-rule:evenodd;clip-rule:evenodd;fill:#9B7CAB;" d="M12,10.999c-0.552,0-1,0.448-1,1.001v8c0,0.552,0.448,1,1,1
			c0.553,0,1-0.448,1-1v-8C13,11.447,12.553,10.999,12,10.999z M20,10.999c-0.193,0-0.362,0.069-0.516,0.164l-5.988,3.802
			c-0.324,0.205-0.488,0.583-0.482,0.968c-0.003,0.022-0.002,0.044-0.004,0.067c0.002,0.022,0.001,0.045,0.004,0.067
			c-0.006,0.385,0.158,0.762,0.482,0.968l6.005,3.812C19.65,20.936,19.814,21,20,21c0.553,0,1-0.448,1-1v-8
			C21,11.447,20.553,10.999,20,10.999z"/>
	</g>
</g>
<g>
</g>
<g>
</g>
<g>
</g>
<g>
</g>
<g>
</g>
<g>
</g>
<g>
</g>
<g>
</g>
<g>
</g>
<g>
</g>
<g>
</g>
<g>
</g>
<g>
</g>
<g>
</g>
<g>
</g>
</svg>
