<?xml version="1.0" encoding="iso-8859-1"?>
<!-- Generator: Adobe Illustrator 16.0.0, SVG Export Plug-In . SVG Version: 6.00 Build 0)  -->
<!DOCTYPE svg PUBLIC "-//W3C//DTD SVG 1.1//EN" "http://www.w3.org/Graphics/SVG/1.1/DTD/svg11.dtd">
<svg version="1.1" id="Layer_1" xmlns="http://www.w3.org/2000/svg" xmlns:xlink="http://www.w3.org/1999/xlink" x="0px" y="0px"
	 width="32px" height="31.999px" viewBox="0 0 32 31.999" style="enable-background:new 0 0 32 31.999;" xml:space="preserve">
<g id="Elipse_71_">
	<g>
		<path style="fill-rule:evenodd;clip-rule:evenodd;fill:#CCCCCC;" d="M16,0C7.163,0,0,7.163,0,15.999c0,8.837,7.163,16,16,16
			s16-7.163,16-16C32,7.163,24.837,0,16,0z M16,29.999c-7.732,0-14-6.269-14-14s6.268-14,14-14s14,6.269,14,14
			S23.732,29.999,16,29.999z"/>
	</g>
</g>
<g id="Refresh_1_">
	<g>
		<path style="fill-rule:evenodd;clip-rule:evenodd;fill:#88C057;" d="M10,15h4c0.552,0,1-0.448,1-1.001c0-0.552-0.448-1-1-1h-1.979
			C12.933,11.79,14.368,11,16,11c2.419,0,4.436,1.718,4.899,4h2.021C22.435,11.608,19.525,8.999,16,8.999
			c-1.969,0-3.731,0.827-5,2.138V10c0-0.553-0.448-1.001-1-1.001c-0.553,0-1,0.448-1,1.001v3.999C9,14.552,9.447,15,10,15z M22,17
			h-4c-0.553,0-1,0.447-1,0.999C17,18.552,17.447,19,18,19h1.979c-0.911,1.209-2.348,1.999-3.979,1.999
			c-2.419,0-4.436-1.717-4.899-3.999H9.079c0.487,3.391,3.396,6,6.921,6c1.97,0,3.731-0.827,5-2.137v1.136
			C21,22.552,21.447,23,22,23c0.552,0,1-0.448,1-1.001v-4C23,17.447,22.552,17,22,17z"/>
	</g>
</g>
<g>
</g>
<g>
</g>
<g>
</g>
<g>
</g>
<g>
</g>
<g>
</g>
<g>
</g>
<g>
</g>
<g>
</g>
<g>
</g>
<g>
</g>
<g>
</g>
<g>
</g>
<g>
</g>
<g>
</g>
</svg>
