<?xml version="1.0" encoding="iso-8859-1"?>
<!-- Generator: Adobe Illustrator 16.0.0, SVG Export Plug-In . SVG Version: 6.00 Build 0)  -->
<!DOCTYPE svg PUBLIC "-//W3C//DTD SVG 1.1//EN" "http://www.w3.org/Graphics/SVG/1.1/DTD/svg11.dtd">
<svg version="1.1" id="Layer_1" xmlns="http://www.w3.org/2000/svg" xmlns:xlink="http://www.w3.org/1999/xlink" x="0px" y="0px"
	 width="32px" height="31.999px" viewBox="0 0 32 31.999" style="enable-background:new 0 0 32 31.999;" xml:space="preserve">
<g id="Elipse_70_">
	<g>
		<path style="fill-rule:evenodd;clip-rule:evenodd;fill:#CCCCCC;" d="M16,0C7.163,0,0,7.163,0,15.999c0,8.837,7.163,16,16,16
			s16-7.163,16-16C32,7.163,24.837,0,16,0z M16,29.999c-7.732,0-14-6.269-14-14s6.268-14,14-14s14,6.269,14,14
			S23.732,29.999,16,29.999z"/>
	</g>
</g>
<g id="Reload">
	<g>
		<path style="fill-rule:evenodd;clip-rule:evenodd;fill:#88C057;" d="M17,13.999C17,14.552,17.447,15,18,15h4
			c0.553,0,1-0.448,1-1.001V10c0-0.553-0.447-1.001-1-1.001S21,9.447,21,10v1.136c-1.269-1.31-3.03-2.137-5-2.137
			c-3.866,0-7,3.134-7,7.001c0,3.865,3.134,7,7,7c3.525,0,6.434-2.609,6.921-6h-2.021c-0.464,2.282-2.48,3.999-4.899,3.999
			c-2.762,0-5-2.237-5-4.999s2.238-5,5-5c1.629,0,3.054,0.792,3.963,1.999H18C17.447,12.999,17,13.447,17,13.999z"/>
	</g>
</g>
<g>
</g>
<g>
</g>
<g>
</g>
<g>
</g>
<g>
</g>
<g>
</g>
<g>
</g>
<g>
</g>
<g>
</g>
<g>
</g>
<g>
</g>
<g>
</g>
<g>
</g>
<g>
</g>
<g>
</g>
</svg>
