<?xml version="1.0" encoding="iso-8859-1"?>
<!-- Generator: Adobe Illustrator 16.0.0, SVG Export Plug-In . SVG Version: 6.00 Build 0)  -->
<!DOCTYPE svg PUBLIC "-//W3C//DTD SVG 1.1//EN" "http://www.w3.org/Graphics/SVG/1.1/DTD/svg11.dtd">
<svg version="1.1" id="Layer_1" xmlns="http://www.w3.org/2000/svg" xmlns:xlink="http://www.w3.org/1999/xlink" x="0px" y="0px"
	 width="32px" height="32px" viewBox="0 0 32 32" style="enable-background:new 0 0 32 32;" xml:space="preserve">
<g id="Elipse_48_">
	<g>
		<path style="fill-rule:evenodd;clip-rule:evenodd;fill:#CCCCCC;" d="M16,0C7.164,0,0,7.163,0,16c0,8.836,7.164,16,16,16
			s16-7.164,16-16C32,7.163,24.836,0,16,0z M16,30C8.268,30,2,23.732,2,16C2,8.269,8.268,2,16,2s14,6.269,14,14
			C30,23.732,23.732,30,16,30z"/>
	</g>
</g>
<g id="Remove_1_">
	<g>
		<path style="fill-rule:evenodd;clip-rule:evenodd;fill:#ED7161;" d="M19.715,18.364l-2.351-2.352l2.351-2.351
			c0.372-0.372,0.372-0.975,0-1.347c-0.372-0.371-0.974-0.371-1.346,0l-2.352,2.352l-2.381-2.381c-0.373-0.373-0.978-0.373-1.351,0
			s-0.373,0.978,0,1.351l2.381,2.381l-2.352,2.353c-0.372,0.372-0.372,0.975,0,1.346c0.372,0.372,0.974,0.372,1.345,0l2.353-2.353
			l2.352,2.352c0.373,0.373,0.978,0.373,1.351,0S20.088,18.737,19.715,18.364z"/>
	</g>
</g>
<g>
</g>
<g>
</g>
<g>
</g>
<g>
</g>
<g>
</g>
<g>
</g>
<g>
</g>
<g>
</g>
<g>
</g>
<g>
</g>
<g>
</g>
<g>
</g>
<g>
</g>
<g>
</g>
<g>
</g>
</svg>
