<?xml version="1.0" encoding="iso-8859-1"?>
<!-- Generator: Adobe Illustrator 16.0.0, SVG Export Plug-In . SVG Version: 6.00 Build 0)  -->
<!DOCTYPE svg PUBLIC "-//W3C//DTD SVG 1.1//EN" "http://www.w3.org/Graphics/SVG/1.1/DTD/svg11.dtd">
<svg version="1.1" id="Layer_1" xmlns="http://www.w3.org/2000/svg" xmlns:xlink="http://www.w3.org/1999/xlink" x="0px" y="0px"
	 width="32px" height="32px" viewBox="0 0 32 32" style="enable-background:new 0 0 32 32;" xml:space="preserve">
<g id="Elipse_40_">
	<g>
		<path style="fill-rule:evenodd;clip-rule:evenodd;fill:#CCCCCC;" d="M16,0C7.164,0,0,7.163,0,16c0,8.836,7.164,16,16,16
			s16-7.164,16-16C32,7.163,24.836,0,16,0z M16,30C8.268,30,2,23.731,2,16C2,8.268,8.268,2,16,2s14,6.268,14,14
			C30,23.731,23.732,30,16,30z"/>
	</g>
</g>
<g id="Arrow_6_">
	<g>
		<path style="fill-rule:evenodd;clip-rule:evenodd;fill:#48A0DC;" d="M21,16c0-0.191-0.068-0.359-0.161-0.512
			c-0.027-0.053-0.063-0.101-0.1-0.148c-0.015-0.017-0.024-0.037-0.04-0.053c-0.009-0.009-0.014-0.021-0.022-0.029l-2.923-2.933
			c-0.404-0.405-1.058-0.405-1.461,0c-0.404,0.404-0.404,1.061,0,1.466L17.497,15H12c-0.553,0-1,0.447-1,1c0,0.552,0.448,1,1,1
			h5.544l-1.25,1.245c-0.405,0.403-0.405,1.058,0,1.461c0.404,0.402,1.061,0.402,1.465,0l2.93-2.921
			c0.194-0.193,0.285-0.445,0.292-0.698C20.985,16.057,21,16.03,21,16z"/>
	</g>
</g>
<g>
</g>
<g>
</g>
<g>
</g>
<g>
</g>
<g>
</g>
<g>
</g>
<g>
</g>
<g>
</g>
<g>
</g>
<g>
</g>
<g>
</g>
<g>
</g>
<g>
</g>
<g>
</g>
<g>
</g>
</svg>
