<?xml version="1.0" encoding="iso-8859-1"?>
<!-- Generator: Adobe Illustrator 16.0.0, SVG Export Plug-In . SVG Version: 6.00 Build 0)  -->
<!DOCTYPE svg PUBLIC "-//W3C//DTD SVG 1.1//EN" "http://www.w3.org/Graphics/SVG/1.1/DTD/svg11.dtd">
<svg version="1.1" id="Layer_1" xmlns="http://www.w3.org/2000/svg" xmlns:xlink="http://www.w3.org/1999/xlink" x="0px" y="0px"
	 width="32px" height="32.001px" viewBox="0 0 32 32.001" style="enable-background:new 0 0 32 32.001;" xml:space="preserve">
<g id="Elipse_78_">
	<g>
		<path style="fill-rule:evenodd;clip-rule:evenodd;fill:#CCCCCC;" d="M16,0C7.163,0,0,7.164,0,16c0,8.837,7.163,16.001,16,16.001
			c8.836,0,16-7.164,16-16.001C32,7.164,24.836,0,16,0z M16,30C8.268,30,2,23.732,2,16C2,8.269,8.268,2.001,16,2.001
			c7.731,0,14,6.268,14,13.999C30,23.732,23.731,30,16,30z"/>
	</g>
</g>
<g id="Settings">
	<g>
		<path style="fill:#ED7161;" d="M22.125,14.688l-0.65-0.213c-0.125-0.447-0.3-0.873-0.523-1.269l0.308-0.609
			c0.342-0.342,0.342-0.896,0-1.237l-0.618-0.618c-0.342-0.342-0.896-0.342-1.238,0l-0.607,0.309
			c-0.396-0.225-0.821-0.4-1.269-0.524l-0.214-0.651C17.313,9.392,16.921,9,16.438,9h-0.875c-0.483,0-0.875,0.392-0.875,0.874
			l-0.213,0.651c-0.445,0.123-0.869,0.298-1.264,0.521l-0.614-0.305c-0.342-0.342-0.896-0.342-1.237,0l-0.618,0.618
			c-0.342,0.342-0.342,0.896,0,1.237l0.305,0.614c-0.222,0.392-0.396,0.813-0.52,1.258l-0.651,0.219C9.392,14.688,9,15.079,9,15.562
			v0.875c0,0.484,0.392,0.875,0.875,0.875l0.652,0.22c0.124,0.443,0.298,0.865,0.519,1.258l-0.305,0.614
			c-0.342,0.342-0.342,0.896,0,1.237l0.618,0.618c0.342,0.342,0.896,0.342,1.237,0l0.614-0.305c0.393,0.221,0.814,0.395,1.258,0.519
			l0.219,0.652c0,0.483,0.392,0.875,0.875,0.875h0.875c0.483,0,0.875-0.392,0.875-0.875l0.219-0.652
			c0.445-0.124,0.868-0.299,1.262-0.521l0.609,0.308c0.342,0.342,0.896,0.342,1.238,0l0.618-0.618c0.342-0.342,0.342-0.896,0-1.237
			l-0.309-0.609c0.224-0.396,0.399-0.82,0.523-1.269l0.651-0.214c0.483,0,0.875-0.391,0.875-0.875v-0.875
			C23,15.079,22.608,14.688,22.125,14.688z M16,19c-1.657,0-3-1.344-3-3c0-1.657,1.343-3,3-3c1.656,0,3,1.343,3,3
			C19,17.656,17.656,19,16,19z"/>
	</g>
</g>
<g>
</g>
<g>
</g>
<g>
</g>
<g>
</g>
<g>
</g>
<g>
</g>
<g>
</g>
<g>
</g>
<g>
</g>
<g>
</g>
<g>
</g>
<g>
</g>
<g>
</g>
<g>
</g>
<g>
</g>
</svg>
