<?xml version="1.0" encoding="iso-8859-1"?>
<!-- Generator: Adobe Illustrator 16.0.0, SVG Export Plug-In . SVG Version: 6.00 Build 0)  -->
<!DOCTYPE svg PUBLIC "-//W3C//DTD SVG 1.1//EN" "http://www.w3.org/Graphics/SVG/1.1/DTD/svg11.dtd">
<svg version="1.1" id="Layer_1" xmlns="http://www.w3.org/2000/svg" xmlns:xlink="http://www.w3.org/1999/xlink" x="0px" y="0px"
	 width="32px" height="32px" viewBox="0 0 32 32" style="enable-background:new 0 0 32 32;" xml:space="preserve">
<g id="Elipse_29_">
	<g>
		<path style="fill-rule:evenodd;clip-rule:evenodd;fill:#CCCCCC;" d="M16,0C7.163,0,0,7.163,0,16s7.163,16,16,16
			c8.836,0,16-7.163,16-16S24.836,0,16,0z M16,30C8.268,30,2,23.732,2,16C2,8.269,8.268,2,16,2c7.731,0,14,6.269,14,14
			C30,23.732,23.731,30,16,30z"/>
	</g>
</g>
<g id="Sharea">
	<g>
		<path style="fill-rule:evenodd;clip-rule:evenodd;fill:#9B7CAB;" d="M20,17.001c-0.792,0-1.506,0.313-2.042,0.813l-2.993-1.463
			C14.979,16.235,15,16.121,15,16.001s-0.021-0.234-0.035-0.351l2.992-1.463c0.536,0.501,1.251,0.813,2.043,0.813
			c1.656,0,3-1.344,3-3c0-1.657-1.344-3-3-3c-1.657,0-3,1.343-3,3c0,0.123,0.021,0.24,0.036,0.358l-2.987,1.461
			c-0.536-0.505-1.254-0.819-2.049-0.819c-1.657,0-3,1.343-3,3c0,1.656,1.343,3,3,3c0.795,0,1.513-0.314,2.049-0.819l2.987,1.46
			C17.021,19.761,17,19.878,17,20.001c0,1.656,1.343,3,3,3c1.656,0,3-1.344,3-3C23,18.344,21.656,17.001,20,17.001z"/>
	</g>
</g>
<g>
</g>
<g>
</g>
<g>
</g>
<g>
</g>
<g>
</g>
<g>
</g>
<g>
</g>
<g>
</g>
<g>
</g>
<g>
</g>
<g>
</g>
<g>
</g>
<g>
</g>
<g>
</g>
<g>
</g>
</svg>
