<?xml version="1.0" encoding="iso-8859-1"?>
<!-- Generator: Adobe Illustrator 16.0.0, SVG Export Plug-In . SVG Version: 6.00 Build 0)  -->
<!DOCTYPE svg PUBLIC "-//W3C//DTD SVG 1.1//EN" "http://www.w3.org/Graphics/SVG/1.1/DTD/svg11.dtd">
<svg version="1.1" id="Layer_1" xmlns="http://www.w3.org/2000/svg" xmlns:xlink="http://www.w3.org/1999/xlink" x="0px" y="0px"
	 width="32px" height="32px" viewBox="0 0 32 32" style="enable-background:new 0 0 32 32;" xml:space="preserve">
<g id="Elipse_79_">
	<g>
		<path style="fill-rule:evenodd;clip-rule:evenodd;fill:#CCCCCC;" d="M16,0C7.163,0,0,7.163,0,15.999C0,24.836,7.163,32,16,32
			c8.836,0,16-7.164,16-16.001C32,7.163,24.836,0,16,0z M16,30C8.268,30,2,23.731,2,15.999C2,8.268,8.268,2,16,2
			c7.731,0,14,6.268,14,13.999C30,23.731,23.731,30,16,30z"/>
	</g>
</g>
<g id="Shuffle">
	<g>
		<path style="fill-rule:evenodd;clip-rule:evenodd;fill:#48A0DC;" d="M22.704,19.234l-1.938-1.938c-0.406-0.406-1.064-0.406-1.47,0
			c-0.405,0.405-0.405,1.063,0,1.469l0.19,0.19c-0.984-0.164-1.699-0.789-2.286-1.602c-0.346,0.684-0.67,1.373-1.022,1.968
			c0.688,0.964,1.551,1.678,2.822,1.678c0.191,0,0.366,0,0.54,0l-0.246,0.246c-0.403,0.403-0.403,1.057,0,1.461
			c0.403,0.402,1.058,0.402,1.46,0l1.921-1.921c0.11-0.11,0.184-0.241,0.234-0.378c0.005-0.013,0.011-0.024,0.016-0.037
			C23.083,19.993,23.012,19.542,22.704,19.234z M10,14c0,0,1.538,0,2,0c0.604,0,1.082,0.291,1.5,0.743
			c0.333-0.634,0.654-1.327,1.012-1.986c-0.421-0.46-0.902-0.758-1.512-0.758c-1.411,0-3,0-3,0c-0.553,0-1,0.448-1,1.001
			C9,13.552,9.447,14,10,14z M19.481,13.058l-0.188,0.188c-0.403,0.403-0.403,1.057,0,1.46s1.058,0.403,1.46,0l1.921-1.92
			c0.11-0.11,0.184-0.24,0.233-0.378c0.006-0.013,0.012-0.024,0.017-0.037c0.158-0.377,0.086-0.829-0.221-1.136l-1.938-1.938
			c-0.406-0.406-1.064-0.406-1.47,0c-0.405,0.405-0.405,1.063,0,1.469L19.531,11c-0.171,0-0.343,0-0.531,0c-4,0-4,7-7,7
			c-0.462,0-2,0-2,0c-0.553,0-1,0.447-1,1c0,0.552,0.447,0.999,1,0.999c0,0,1.589,0,3,0C15.862,19.999,16.002,13.644,19.481,13.058z
			"/>
	</g>
</g>
<g>
</g>
<g>
</g>
<g>
</g>
<g>
</g>
<g>
</g>
<g>
</g>
<g>
</g>
<g>
</g>
<g>
</g>
<g>
</g>
<g>
</g>
<g>
</g>
<g>
</g>
<g>
</g>
<g>
</g>
</svg>
