<?xml version="1.0" encoding="iso-8859-1"?>
<!-- Generator: Adobe Illustrator 16.0.0, SVG Export Plug-In . SVG Version: 6.00 Build 0)  -->
<!DOCTYPE svg PUBLIC "-//W3C//DTD SVG 1.1//EN" "http://www.w3.org/Graphics/SVG/1.1/DTD/svg11.dtd">
<svg version="1.1" id="Layer_1" xmlns="http://www.w3.org/2000/svg" xmlns:xlink="http://www.w3.org/1999/xlink" x="0px" y="0px"
	 width="32px" height="32px" viewBox="0 0 32 32" style="enable-background:new 0 0 32 32;" xml:space="preserve">
<g id="Elipse_32_">
	<g>
		<path style="fill-rule:evenodd;clip-rule:evenodd;fill:#CCCCCC;" d="M16,0C7.164,0,0,7.163,0,16s7.164,16,16,16s16-7.163,16-16
			S24.836,0,16,0z M16,30C8.268,30,2,23.732,2,16C2,8.269,8.268,2,16,2s14,6.269,14,14C30,23.732,23.732,30,16,30z"/>
	</g>
</g>
<g id="Contrast_2_">
	<g>
		<path style="fill-rule:evenodd;clip-rule:evenodd;fill:#48A0DC;" d="M22,15.001h-1.101c-0.397-1.958-1.942-3.492-3.899-3.891
			v-1.109c0-0.553-0.448-1-1-1s-1,0.447-1,1v1.109c-1.958,0.398-3.502,1.933-3.899,3.891H10c-0.552,0-1,0.447-1,1s0.448,1,1,1h1.101
			c0.398,1.957,1.942,3.492,3.899,3.891v1.109c0,0.552,0.448,1,1,1s1-0.448,1-1v-1.109c1.957-0.398,3.501-1.934,3.899-3.891H22
			c0.552,0,1-0.447,1-1S22.552,15.001,22,15.001z M18.827,16.966c-0.3,0.876-0.987,1.571-1.86,1.872
			c-0.08-0.472-0.473-0.837-0.967-0.837s-0.887,0.365-0.967,0.837c-0.873-0.301-1.561-0.996-1.86-1.872
			C13.64,16.882,14,16.492,14,16.001s-0.36-0.881-0.827-0.965c0.299-0.876,0.987-1.571,1.86-1.872
			c0.081,0.471,0.473,0.837,0.967,0.837s0.886-0.366,0.967-0.837c0.873,0.301,1.561,0.996,1.86,1.872
			C18.36,15.12,18,15.51,18,16.001S18.36,16.882,18.827,16.966z M16,15.001c-0.552,0-1,0.447-1,1s0.448,1,1,1s1-0.447,1-1
			S16.552,15.001,16,15.001z"/>
	</g>
</g>
<g>
</g>
<g>
</g>
<g>
</g>
<g>
</g>
<g>
</g>
<g>
</g>
<g>
</g>
<g>
</g>
<g>
</g>
<g>
</g>
<g>
</g>
<g>
</g>
<g>
</g>
<g>
</g>
<g>
</g>
</svg>
