<?xml version="1.0" encoding="iso-8859-1"?>
<!-- Generator: Adobe Illustrator 16.0.0, SVG Export Plug-In . SVG Version: 6.00 Build 0)  -->
<!DOCTYPE svg PUBLIC "-//W3C//DTD SVG 1.1//EN" "http://www.w3.org/Graphics/SVG/1.1/DTD/svg11.dtd">
<svg version="1.1" id="Layer_1" xmlns="http://www.w3.org/2000/svg" xmlns:xlink="http://www.w3.org/1999/xlink" x="0px" y="0px"
	 width="32px" height="32px" viewBox="0 0 32 32" style="enable-background:new 0 0 32 32;" xml:space="preserve">
<g id="Elipse_39_">
	<g>
		<path style="fill-rule:evenodd;clip-rule:evenodd;fill:#CCCCCC;" d="M16,0C7.164,0,0,7.163,0,16c0,8.836,7.164,16,16,16
			s16-7.164,16-16C32,7.163,24.836,0,16,0z M16,30C8.268,30,2,23.731,2,16C2,8.268,8.268,2,16,2s14,6.268,14,14
			C30,23.731,23.732,30,16,30z"/>
	</g>
</g>
<g id="Arrow_5_">
	<g>
		<path style="fill-rule:evenodd;clip-rule:evenodd;fill:#88C057;" d="M19.706,14.239l-2.92-2.93
			c-0.194-0.195-0.447-0.285-0.702-0.293C16.055,11.015,16.03,11,16,11c-0.19,0-0.357,0.067-0.509,0.159
			c-0.057,0.029-0.11,0.067-0.162,0.108c-0.013,0.012-0.029,0.019-0.041,0.031c-0.01,0.009-0.021,0.014-0.031,0.023l-2.933,2.924
			c-0.405,0.403-0.405,1.058,0,1.461c0.405,0.403,1.062,0.403,1.466,0L15,14.503V20c0,0.553,0.448,1,1,1s1-0.447,1-1v-5.545
			l1.246,1.25c0.403,0.404,1.057,0.404,1.46,0C20.109,15.301,20.109,14.644,19.706,14.239z"/>
	</g>
</g>
<g>
</g>
<g>
</g>
<g>
</g>
<g>
</g>
<g>
</g>
<g>
</g>
<g>
</g>
<g>
</g>
<g>
</g>
<g>
</g>
<g>
</g>
<g>
</g>
<g>
</g>
<g>
</g>
<g>
</g>
</svg>
