<?xml version="1.0" encoding="iso-8859-1"?>
<!-- Generator: Adobe Illustrator 16.0.0, SVG Export Plug-In . SVG Version: 6.00 Build 0)  -->
<!DOCTYPE svg PUBLIC "-//W3C//DTD SVG 1.1//EN" "http://www.w3.org/Graphics/SVG/1.1/DTD/svg11.dtd">
<svg version="1.1" id="Layer_1" xmlns="http://www.w3.org/2000/svg" xmlns:xlink="http://www.w3.org/1999/xlink" x="0px" y="0px"
	 width="32px" height="32px" viewBox="0 0 32 32" style="enable-background:new 0 0 32 32;" xml:space="preserve">
<g id="Elipse_66_">
	<g>
		<path style="fill-rule:evenodd;clip-rule:evenodd;fill:#CCCCCC;" d="M16,0C7.163,0,0,7.163,0,16s7.163,16,16,16
			c8.836,0,16-7.163,16-16S24.836,0,16,0z M16,30C8.268,30,2,23.731,2,16C2,8.268,8.268,2,16,2c7.731,0,14,6.268,14,14
			C30,23.731,23.731,30,16,30z"/>
	</g>
</g>
<g id="Upload">
	<g>
		<path style="fill-rule:evenodd;clip-rule:evenodd;fill:#48A0DC;" d="M13.791,13.707L15,12.502V18c0,0.552,0.447,1,1,1
			c0.552,0,1-0.448,1-1v-5.545l1.245,1.25c0.403,0.405,1.058,0.405,1.461,0c0.403-0.404,0.403-1.061,0-1.465l-2.921-2.931
			c-0.195-0.195-0.448-0.286-0.703-0.292C16.054,9.014,16.029,9,16,9c-0.19,0-0.358,0.067-0.509,0.159
			c-0.056,0.029-0.108,0.066-0.159,0.107c-0.014,0.012-0.031,0.02-0.044,0.033c-0.009,0.009-0.021,0.014-0.03,0.023l-2.933,2.923
			c-0.405,0.404-0.405,1.058,0,1.462C12.729,14.11,13.387,14.11,13.791,13.707z M21,21H11c-0.553,0-1,0.447-1,1
			c0,0.552,0.447,0.999,1,0.999h10c0.552,0,1-0.447,1-0.999C22,21.447,21.552,21,21,21z"/>
	</g>
</g>
<g>
</g>
<g>
</g>
<g>
</g>
<g>
</g>
<g>
</g>
<g>
</g>
<g>
</g>
<g>
</g>
<g>
</g>
<g>
</g>
<g>
</g>
<g>
</g>
<g>
</g>
<g>
</g>
<g>
</g>
</svg>
