<?xml version="1.0" encoding="iso-8859-1"?>
<!-- Generator: Adobe Illustrator 16.0.0, SVG Export Plug-In . SVG Version: 6.00 Build 0)  -->
<!DOCTYPE svg PUBLIC "-//W3C//DTD SVG 1.1//EN" "http://www.w3.org/Graphics/SVG/1.1/DTD/svg11.dtd">
<svg version="1.1" id="Layer_1" xmlns="http://www.w3.org/2000/svg" xmlns:xlink="http://www.w3.org/1999/xlink" x="0px" y="0px"
	 width="32px" height="31.999px" viewBox="0 0 32 31.999" style="enable-background:new 0 0 32 31.999;" xml:space="preserve">
<g id="Elipse_75_">
	<g>
		<path style="fill-rule:evenodd;clip-rule:evenodd;fill:#CCCCCC;" d="M16,0C7.164,0,0,7.163,0,15.999c0,8.837,7.164,16,16,16
			s16-7.163,16-16C32,7.163,24.836,0,16,0z M16,29.999c-7.732,0-14-6.269-14-14s6.268-14,14-14s14,6.269,14,14
			S23.732,29.999,16,29.999z"/>
	</g>
</g>
<g id="Speaker_2_">
	<g>
		<path style="fill-rule:evenodd;clip-rule:evenodd;fill:#48A0DC;" d="M14,9.999c-0.552,0-3.5,2.448-3.5,3H10c-1.104,0-2,0.896-2,2
			v2c0,1.104,0.896,2,2,2h0.5c0,0.553,2.948,3,3.5,3s1-0.447,1-1v-10C15,10.447,14.552,9.999,14,9.999z"/>
	</g>
</g>
<g id="Mute">
	<g>
		<path style="fill-rule:evenodd;clip-rule:evenodd;fill:#48A0DC;" d="M22.715,19.364l-1.352-1.352l1.352-1.352
			c0.371-0.372,0.371-0.974,0-1.346c-0.372-0.371-0.974-0.371-1.346,0l-1.352,1.352l-1.381-1.381c-0.373-0.374-0.978-0.374-1.351,0
			c-0.373,0.372-0.373,0.977,0,1.351l1.381,1.381l-1.353,1.353c-0.372,0.372-0.372,0.975,0,1.346s0.974,0.371,1.345,0l1.353-1.353
			l1.351,1.351c0.373,0.374,0.978,0.374,1.351,0C23.088,20.342,23.088,19.737,22.715,19.364z"/>
	</g>
</g>
<g>
</g>
<g>
</g>
<g>
</g>
<g>
</g>
<g>
</g>
<g>
</g>
<g>
</g>
<g>
</g>
<g>
</g>
<g>
</g>
<g>
</g>
<g>
</g>
<g>
</g>
<g>
</g>
<g>
</g>
</svg>
