<?xml version="1.0" encoding="iso-8859-1"?>
<!-- Generator: Adobe Illustrator 16.0.0, SVG Export Plug-In . SVG Version: 6.00 Build 0)  -->
<!DOCTYPE svg PUBLIC "-//W3C//DTD SVG 1.1//EN" "http://www.w3.org/Graphics/SVG/1.1/DTD/svg11.dtd">
<svg version="1.1" id="Layer_1" xmlns="http://www.w3.org/2000/svg" xmlns:xlink="http://www.w3.org/1999/xlink" x="0px" y="0px"
	 width="32px" height="31.999px" viewBox="0 0 32 31.999" style="enable-background:new 0 0 32 31.999;" xml:space="preserve">
<g id="Elipse_77_">
	<g>
		<path style="fill-rule:evenodd;clip-rule:evenodd;fill:#CCCCCC;" d="M16,0C7.164,0,0,7.163,0,15.999c0,8.837,7.164,16,16,16
			s16-7.163,16-16C32,7.163,24.836,0,16,0z M16,29.999c-7.732,0-14-6.269-14-14s6.268-14,14-14s14,6.269,14,14
			S23.732,29.999,16,29.999z"/>
	</g>
</g>
<g id="Speaker_4_">
	<g>
		<path style="fill-rule:evenodd;clip-rule:evenodd;fill:#48A0DC;" d="M14,9.999c-0.552,0-3.5,2.448-3.5,3H10c-1.104,0-2,0.896-2,2
			v2c0,1.104,0.896,2,2,2h0.5c0,0.553,2.948,3,3.5,3s1-0.447,1-1v-10C15,10.447,14.552,9.999,14,9.999z"/>
	</g>
</g>
<g id="Sound_1_">
	<g>
		<path style="fill-rule:evenodd;clip-rule:evenodd;fill:#48A0DC;" d="M21.196,12.999c-0.542-0.938-1.301-1.669-2.175-2.177
			c-0.008-0.005-0.012-0.014-0.021-0.019c-0.479-0.276-1.09-0.112-1.366,0.366c-0.276,0.478-0.112,1.089,0.366,1.365l-0.001,0.003
			c0.589,0.339,1.101,0.83,1.465,1.461c0.364,0.632,0.534,1.32,0.533,2c0.001,0.681-0.168,1.37-0.533,2.001
			s-0.876,1.123-1.465,1.461L18,19.464c-0.479,0.276-0.642,0.888-0.366,1.366c0.276,0.479,0.888,0.642,1.366,0.365
			c0.008-0.005,0.013-0.013,0.021-0.019c0.875-0.507,1.633-1.238,2.175-2.177c0.547-0.947,0.8-1.98,0.799-3.001
			C21.996,14.979,21.743,13.946,21.196,12.999z M18.598,17.5c0.273-0.474,0.39-0.99,0.39-1.501c0-0.51-0.116-1.026-0.39-1.5
			c-0.258-0.447-0.621-0.791-1.033-1.04c-0.024-0.017-0.039-0.042-0.065-0.058c-0.479-0.276-1.09-0.112-1.366,0.366
			c-0.276,0.479-0.112,1.09,0.366,1.366l-0.001,0.002c0.148,0.084,0.276,0.206,0.367,0.363c0.091,0.158,0.13,0.33,0.13,0.5
			c0,0.171-0.039,0.343-0.13,0.501s-0.219,0.279-0.367,0.363l0.001,0.002c-0.479,0.276-0.642,0.888-0.366,1.366
			c0.276,0.479,0.888,0.643,1.366,0.366c0.026-0.015,0.041-0.041,0.065-0.058C17.977,18.291,18.339,17.947,18.598,17.5z"/>
	</g>
</g>
<g>
</g>
<g>
</g>
<g>
</g>
<g>
</g>
<g>
</g>
<g>
</g>
<g>
</g>
<g>
</g>
<g>
</g>
<g>
</g>
<g>
</g>
<g>
</g>
<g>
</g>
<g>
</g>
<g>
</g>
</svg>
