<?xml version="1.0" encoding="iso-8859-1"?>
<!-- Generator: Adobe Illustrator 16.0.0, SVG Export Plug-In . SVG Version: 6.00 Build 0)  -->
<!DOCTYPE svg PUBLIC "-//W3C//DTD SVG 1.1//EN" "http://www.w3.org/Graphics/SVG/1.1/DTD/svg11.dtd">
<svg version="1.1" id="Layer_1" xmlns="http://www.w3.org/2000/svg" xmlns:xlink="http://www.w3.org/1999/xlink" x="0px" y="0px"
	 width="32px" height="31.999px" viewBox="0 0 32 31.999" style="enable-background:new 0 0 32 31.999;" xml:space="preserve">
<g id="Elipse_76_">
	<g>
		<path style="fill-rule:evenodd;clip-rule:evenodd;fill:#CCCCCC;" d="M16,0C7.164,0,0,7.163,0,15.999c0,8.837,7.164,16,16,16
			s16-7.163,16-16C32,7.163,24.836,0,16,0z M16,29.999c-7.732,0-14-6.269-14-14s6.268-14,14-14s14,6.269,14,14
			S23.732,29.999,16,29.999z"/>
	</g>
</g>
<g id="Speaker_3_">
	<g>
		<path style="fill-rule:evenodd;clip-rule:evenodd;fill:#48A0DC;" d="M14,9.999c-0.552,0-3.5,2.448-3.5,3H10c-1.104,0-2,0.896-2,2
			v2c0,1.104,0.896,2,2,2h0.5c0,0.553,2.948,3,3.5,3s1-0.447,1-1v-10C15,10.447,14.552,9.999,14,9.999z"/>
	</g>
</g>
<g id="Sound">
	<g>
		<path style="fill-rule:evenodd;clip-rule:evenodd;fill:#48A0DC;" d="M18.598,14.499c-0.258-0.447-0.621-0.791-1.033-1.04
			c-0.024-0.017-0.039-0.042-0.065-0.058c-0.479-0.276-1.09-0.112-1.366,0.366c-0.276,0.479-0.112,1.09,0.366,1.366l-0.001,0.002
			c0.148,0.084,0.276,0.206,0.367,0.363c0.091,0.158,0.13,0.33,0.13,0.5c0,0.171-0.039,0.343-0.13,0.501s-0.219,0.279-0.367,0.363
			l0.001,0.002c-0.479,0.276-0.642,0.888-0.366,1.366c0.276,0.479,0.888,0.643,1.366,0.366c0.026-0.015,0.041-0.041,0.065-0.058
			c0.412-0.249,0.774-0.593,1.033-1.04c0.273-0.474,0.39-0.99,0.39-1.501C18.988,15.489,18.871,14.973,18.598,14.499z"/>
	</g>
</g>
<g>
</g>
<g>
</g>
<g>
</g>
<g>
</g>
<g>
</g>
<g>
</g>
<g>
</g>
<g>
</g>
<g>
</g>
<g>
</g>
<g>
</g>
<g>
</g>
<g>
</g>
<g>
</g>
<g>
</g>
</svg>
